<svg xmlns="http://www.w3.org/2000/svg" width="193.473" height="23.615"><g data-name="Group 557"><g data-name="Path 1239"><path data-name="Path 1261" d="M24.815 23.359H20.26L12.373 5.42 4.486 23.359H0L10.468.247h3.845Z" fill="#5865f2"/></g><g data-name="Path 1240"><path data-name="Path 1262" d="m57.251 17.83-.006.006a10.658 10.658 0 0 1-4.417 4.088 14.108 14.108 0 0 1-6.189 1.438h-10.1v-3.868h9.648a9.76 9.76 0 0 0 4.48-.976 6.9 6.9 0 0 0 2.846-2.685 8.436 8.436 0 0 0-.006-8.089 7 7 0 0 0-2.846-2.65 9.689 9.689 0 0 0-4.463-.976h-9.657V.25h9.832a14.037 14.037 0 0 1 6.455 1.438 10.725 10.725 0 0 1 4.394 4.047l.029.046a12.392 12.392 0 0 1 0 12.049Z" fill="#23272a"/></g><g data-name="Path 1241"><path data-name="Path 1263" d="m91.335 17.83-.006.006a10.693 10.693 0 0 1-4.417 4.088 14.127 14.127 0 0 1-6.187 1.438h-10.1v-3.868h9.648a9.687 9.687 0 0 0 4.48-.976 6.931 6.931 0 0 0 2.846-2.685 8.42 8.42 0 0 0-.012-8.089 7 7 0 0 0-2.846-2.65 9.665 9.665 0 0 0-4.457-.976h-9.659V.25h9.832a13.986 13.986 0 0 1 6.455 1.443A10.719 10.719 0 0 1 91.3 5.729l.035.052a12.422 12.422 0 0 1 0 12.049Z" fill="#23272a"/></g><g data-name="Path 1242"><path data-name="Path 1264" d="M129.452 23.359h-4.543l-.156-.335-7.734-17.608-7.884 17.943h-4.486l10.47-23.11h3.839l.075.167Z" fill="#5865f2"/></g><g data-name="Path 1243"><path data-name="Path 1265" d="m162.451 19.574-.364.4a10.4 10.4 0 0 1-3.874 2.725 12.74 12.74 0 0 1-4.769.918h-.312a13.008 13.008 0 0 1-4.688-.872 11.18 11.18 0 0 1-3.868-2.477 11.446 11.446 0 0 1-2.558-3.747 12.3 12.3 0 0 1 0-9.411 11.633 11.633 0 0 1 6.455-6.235 13.787 13.787 0 0 1 9.734.029 10.3 10.3 0 0 1 3.886 2.714l.352.41-2.841 2.76-.4-.421a7.458 7.458 0 0 0-2.621-1.824 7.792 7.792 0 0 0-3.135-.6 8.478 8.478 0 0 0-3.245.589 7.622 7.622 0 0 0-2.558 1.634 7.265 7.265 0 0 0-1.669 2.488 8.5 8.5 0 0 0 0 6.328 7.265 7.265 0 0 0 1.669 2.488 7.566 7.566 0 0 0 2.558 1.634 8.739 8.739 0 0 0 6.374-.017 7.373 7.373 0 0 0 2.615-1.848l.4-.439Z" fill="#23272a"/></g><g data-name="Path 1244"><path data-name="Path 1266" d="M193.472.249v3.868h-7.54v19.242h-4.244V4.117h-7.534V.249Z" fill="#23272a"/></g></g></svg>