<svg width="375" height="423" viewBox="0 0 375 423" fill="none" xmlns="http://www.w3.org/2000/svg">
<g opacity="0.8" clip-path="url(#clip0_20225_38882)">
<path d="M-16.3767 304.019L-48.1445 313.609L-0.0487487 299.948L-16.3767 304.019Z" stroke="white" stroke-width="0.785749" stroke-linejoin="round"/>
<path d="M-0.0510916 299.948L-29.6602 314.784L16.3179 298.951L-0.0510916 299.948Z" stroke="white" stroke-width="0.785749" stroke-linejoin="round"/>
<path d="M-29.6578 314.784L-0.0487487 299.948L-48.1445 313.609L-29.6578 314.784Z" stroke="white" stroke-width="0.785749" stroke-linejoin="round"/>
<path d="M27.6082 287.448L-0.046875 299.948L43.8679 279.811L27.6082 287.448Z" stroke="white" stroke-width="0.785749" stroke-linejoin="round"/>
<path d="M16.3221 298.951L43.8679 279.811L-0.046875 299.948L16.3221 298.951Z" stroke="white" stroke-width="0.785749" stroke-linejoin="round"/>
<path d="M-0.0470739 299.948L27.608 287.448L-16.375 304.019L-0.0470739 299.948Z" stroke="white" stroke-width="0.785749" stroke-linejoin="round"/>
<path d="M43.8574 279.811L68.3289 260.713L27.5977 287.448L43.8574 279.811Z" stroke="white" stroke-width="0.785749" stroke-linejoin="round"/>
<path d="M43.8662 279.811L16.3203 298.951L65.4547 279.716L43.8662 279.811Z" stroke="white" stroke-width="0.785749" stroke-linejoin="round"/>
<path d="M36.1325 302.858L65.4547 279.716L16.3203 298.951L36.1325 302.858Z" stroke="white" stroke-width="0.785749" stroke-linejoin="round"/>
<path d="M-12.8618 317.352L-42.5938 334.525L5.47485 322.243L-12.8618 317.352Z" stroke="white" stroke-width="0.785749" stroke-linejoin="round"/>
<path d="M36.1376 302.858L5.47656 322.243L63.1232 313.282L36.1376 302.858Z" stroke="white" stroke-width="0.785749" stroke-linejoin="round"/>
<path d="M16.3182 298.951L-12.8672 317.353L36.1304 302.858L16.3182 298.951Z" stroke="white" stroke-width="0.785749" stroke-linejoin="round"/>
<path d="M5.46941 322.243L36.1304 302.858L-12.8672 317.353L5.46941 322.243Z" stroke="white" stroke-width="0.785749" stroke-linejoin="round"/>
<path d="M-12.8675 317.353L16.3179 298.951L-29.6602 314.784L-12.8675 317.353Z" stroke="white" stroke-width="0.785749" stroke-linejoin="round"/>
<path d="M68.3426 260.713L43.8711 279.811L91.8713 252.625L68.3426 260.713Z" stroke="white" stroke-width="0.785749" stroke-linejoin="round"/>
<path d="M91.8648 252.625L65.4531 279.716L123.496 259.729L91.8648 252.625Z" stroke="white" stroke-width="0.785749" stroke-linejoin="round"/>
<path d="M65.4596 279.716L91.8713 252.625L43.8711 279.811L65.4596 279.716Z" stroke="white" stroke-width="0.785749" stroke-linejoin="round"/>
<path d="M112.532 225.453L91.8594 252.612L118.093 239.223L134.449 255.33L112.532 225.453Z" stroke="white" stroke-width="0.785749" stroke-linejoin="round"/>
<path d="M123.491 259.729L132.099 252.543L134.449 255.33L118.093 239.223L91.8594 252.625L123.491 259.729Z" stroke="white" stroke-width="0.785749" stroke-linejoin="round"/>
<path d="M91.8646 252.625L112.538 225.453L68.3359 260.713L91.8646 252.625Z" stroke="white" stroke-width="0.785749" stroke-linejoin="round"/>
<path d="M134.447 255.33L132.083 252.543L123.488 259.729L158.945 291.533L134.447 255.33Z" stroke="white" stroke-width="0.785749" stroke-linejoin="round"/>
<path d="M134.456 255.33L135.494 282.721L112.539 225.453L134.456 255.33Z" stroke="white" stroke-width="0.785749" stroke-linejoin="round"/>
<path d="M135.492 282.721L134.453 255.33L158.856 296.765L170.306 299.251L135.492 282.721Z" stroke="white" stroke-width="0.785749" stroke-linejoin="round"/>
<path d="M170.308 299.251L158.953 291.533L175.445 298.8L218.39 270.276L170.308 299.251Z" stroke="white" stroke-width="0.785749" stroke-linejoin="round"/>
<path d="M158.952 291.533L170.306 299.251L134.453 255.33L158.952 291.533Z" stroke="white" stroke-width="0.785749" stroke-linejoin="round"/>
<path d="M191.983 280.207L170.312 299.251L247.812 228.622L191.983 280.207Z" stroke="white" stroke-width="0.785749" stroke-linejoin="round"/>
<path d="M218.395 270.276L247.812 228.622L170.312 299.251L218.395 270.276Z" stroke="white" stroke-width="0.785749" stroke-linejoin="round"/>
<path d="M170.307 299.251L191.977 280.207L165.456 301.341L147.571 301.178L135.492 282.721L170.307 299.251Z" stroke="white" stroke-width="0.785749" stroke-linejoin="round"/>
<path d="M247.814 228.622L282.068 177.133L191.984 280.207L247.814 228.622Z" stroke="white" stroke-width="0.785749" stroke-linejoin="round"/>
<path d="M65.4452 279.716L36.1367 302.858L96.2429 289.661L65.4452 279.716Z" stroke="white" stroke-width="0.785749" stroke-linejoin="round"/>
<path d="M96.2514 289.661L63.1172 313.282L134.346 310.058L96.2514 289.661Z" stroke="white" stroke-width="0.785749" stroke-linejoin="round"/>
<path d="M63.1145 313.282L96.2487 289.661L36.1289 302.858L63.1145 313.282Z" stroke="white" stroke-width="0.785749" stroke-linejoin="round"/>
<path d="M123.491 259.729L96.2461 289.661L149.698 290.522L123.491 259.729Z" stroke="white" stroke-width="0.785749" stroke-linejoin="round"/>
<path d="M134.34 310.058L149.698 290.522L96.2461 289.661L134.34 310.058Z" stroke="white" stroke-width="0.785749" stroke-linejoin="round"/>
<path d="M96.2507 289.661L123.496 259.729L65.4531 279.716L96.2507 289.661Z" stroke="white" stroke-width="0.785749" stroke-linejoin="round"/>
<path d="M247.808 228.622L218.391 270.276L299.061 185.821L247.808 228.622Z" stroke="white" stroke-width="0.785749" stroke-linejoin="round"/>
<path d="M264.191 233.458L299.061 185.821L218.391 270.276L264.191 233.458Z" stroke="white" stroke-width="0.785749" stroke-linejoin="round"/>
<path d="M149.706 290.522L134.348 310.057L177.689 311.355L149.706 290.522Z" stroke="white" stroke-width="0.785749" stroke-linejoin="round"/>
<path d="M149.695 290.522L154.723 288.691L158.945 291.533L123.488 259.729L149.695 290.522Z" stroke="white" stroke-width="0.785749" stroke-linejoin="round"/>
<path d="M158.949 291.533L154.727 288.691L149.699 290.522L192.74 298.404L158.949 291.533Z" stroke="white" stroke-width="0.785749" stroke-linejoin="round"/>
<path d="M192.745 298.404L177.688 311.355L235.649 269.237L192.745 298.404Z" stroke="white" stroke-width="0.785749" stroke-linejoin="round"/>
<path d="M177.682 311.355L192.74 298.404L149.699 290.522L177.682 311.355Z" stroke="white" stroke-width="0.785749" stroke-linejoin="round"/>
<path d="M218.385 270.276L192.738 298.404L264.185 233.458L218.385 270.276Z" stroke="white" stroke-width="0.785749" stroke-linejoin="round"/>
<path d="M235.642 269.237L264.185 233.458L192.738 298.404L235.642 269.237Z" stroke="white" stroke-width="0.785749" stroke-linejoin="round"/>
<path d="M192.743 298.404L218.39 270.276L171.155 298.35L158.953 291.533L192.743 298.404Z" stroke="white" stroke-width="0.785749" stroke-linejoin="round"/>
<path d="M5.4677 322.243L-25.2891 338.309L28.928 330.112L5.4677 322.243Z" stroke="white" stroke-width="0.785749" stroke-linejoin="round"/>
<path d="M-4.88941 341.547L28.928 330.112L-25.2891 338.309L-4.88941 341.547Z" stroke="white" stroke-width="0.785749" stroke-linejoin="round"/>
<path d="M-25.2819 338.309L5.47485 322.243L-42.5938 334.525L-25.2819 338.309Z" stroke="white" stroke-width="0.785749" stroke-linejoin="round"/>
<path d="M28.9368 330.112L63.1232 313.281L5.47656 322.243L28.9368 330.112Z" stroke="white" stroke-width="0.785749" stroke-linejoin="round"/>
<path d="M28.9229 330.112L-4.89453 341.547L61.3739 341.342L28.9229 330.112Z" stroke="white" stroke-width="0.785749" stroke-linejoin="round"/>
<path d="M25.8759 346.97L61.3739 341.342L-4.89453 341.547L25.8759 346.97Z" stroke="white" stroke-width="0.785749" stroke-linejoin="round"/>
<path d="M-33.3564 352.271L-50.9414 369.43L3.59004 361.246L-33.3564 352.271Z" stroke="white" stroke-width="0.785749" stroke-linejoin="round"/>
<path d="M25.879 346.97L3.59375 361.246L72.9502 362.886L25.879 346.97Z" stroke="white" stroke-width="0.785749" stroke-linejoin="round"/>
<path d="M-4.88449 341.547L-33.3594 352.271L25.8859 346.97L-4.88449 341.547Z" stroke="white" stroke-width="0.785749" stroke-linejoin="round"/>
<path d="M3.60071 361.246L25.8859 346.97L-33.3594 352.271L3.60071 361.246Z" stroke="white" stroke-width="0.785749" stroke-linejoin="round"/>
<path d="M63.1121 313.281L28.9258 330.112L101.247 331.533L63.1121 313.281Z" stroke="white" stroke-width="0.785749" stroke-linejoin="round"/>
<path d="M101.245 331.533L61.375 341.342L146.021 354.58L101.245 331.533Z" stroke="white" stroke-width="0.785749" stroke-linejoin="round"/>
<path d="M61.3768 341.342L101.247 331.533L28.9258 330.112L61.3768 341.342Z" stroke="white" stroke-width="0.785749" stroke-linejoin="round"/>
<path d="M134.347 310.057L101.254 331.533L164.216 330.877L134.347 310.057Z" stroke="white" stroke-width="0.785749" stroke-linejoin="round"/>
<path d="M146.03 354.58L164.216 330.877L101.254 331.533L146.03 354.58Z" stroke="white" stroke-width="0.785749" stroke-linejoin="round"/>
<path d="M101.252 331.533L134.346 310.057L63.1172 313.281L101.252 331.533Z" stroke="white" stroke-width="0.785749" stroke-linejoin="round"/>
<path d="M164.217 330.877L146.031 354.58L197.488 330.153L164.217 330.877Z" stroke="white" stroke-width="0.785749" stroke-linejoin="round"/>
<path d="M164.216 330.877L177.689 311.355L134.348 310.057L164.216 330.877Z" stroke="white" stroke-width="0.785749" stroke-linejoin="round"/>
<path d="M177.687 311.355L164.215 330.877L212.365 302.271L177.687 311.355Z" stroke="white" stroke-width="0.785749" stroke-linejoin="round"/>
<path d="M212.368 302.27L197.488 330.153L254.875 269.183L212.368 302.27Z" stroke="white" stroke-width="0.785749" stroke-linejoin="round"/>
<path d="M197.486 330.153L212.365 302.271L164.215 330.877L197.486 330.153Z" stroke="white" stroke-width="0.785749" stroke-linejoin="round"/>
<path d="M235.638 269.237L212.355 302.27L276.998 244.592L235.638 269.237Z" stroke="white" stroke-width="0.785749" stroke-linejoin="round"/>
<path d="M254.863 269.183L276.998 244.592L212.355 302.27L254.863 269.183Z" stroke="white" stroke-width="0.785749" stroke-linejoin="round"/>
<path d="M212.366 302.27L235.649 269.237L177.688 311.355L212.366 302.27Z" stroke="white" stroke-width="0.785749" stroke-linejoin="round"/>
<path d="M264.196 233.458L235.652 269.237L302.809 218.349L264.196 233.458Z" stroke="white" stroke-width="0.785749" stroke-linejoin="round"/>
<path d="M277.012 244.592L302.809 218.349L235.652 269.237L277.012 244.592Z" stroke="white" stroke-width="0.785749" stroke-linejoin="round"/>
<path d="M61.3847 341.342L25.8867 346.97L108.278 357.667L61.3847 341.342Z" stroke="white" stroke-width="0.785749" stroke-linejoin="round"/>
<path d="M108.277 357.667L72.957 362.886L158.887 376.656L108.277 357.667Z" stroke="white" stroke-width="0.785749" stroke-linejoin="round"/>
<path d="M72.9579 362.886L108.278 357.667L25.8867 346.97L72.9579 362.886Z" stroke="white" stroke-width="0.785749" stroke-linejoin="round"/>
<path d="M146.022 354.58L108.27 357.667L180.687 358.05L146.022 354.58Z" stroke="white" stroke-width="0.785749" stroke-linejoin="round"/>
<path d="M158.88 376.656L180.687 358.05L108.27 357.667L158.88 376.656Z" stroke="white" stroke-width="0.785749" stroke-linejoin="round"/>
<path d="M108.269 357.667L146.021 354.58L61.375 341.342L108.269 357.667Z" stroke="white" stroke-width="0.785749" stroke-linejoin="round"/>
<path d="M277.01 244.592L254.875 269.183L312.549 242.584L277.01 244.592Z" stroke="white" stroke-width="0.785749" stroke-linejoin="round"/>
<path d="M299.254 247.079L304.884 241.86L312.549 242.584L254.875 269.183L299.254 247.079Z" stroke="white" stroke-width="0.785749" stroke-linejoin="round"/>
<path d="M180.698 358.05L158.891 376.656L217.002 344.32L180.698 358.05Z" stroke="white" stroke-width="0.785749" stroke-linejoin="round"/>
<path d="M180.696 358.05L197.488 330.153L146.031 354.58L180.696 358.05Z" stroke="white" stroke-width="0.785749" stroke-linejoin="round"/>
<path d="M197.484 330.153L180.691 358.05L235.879 304.607L197.484 330.153Z" stroke="white" stroke-width="0.785749" stroke-linejoin="round"/>
<path d="M235.875 304.607L216.992 344.32L277.208 284.142L235.875 304.607Z" stroke="white" stroke-width="0.785749" stroke-linejoin="round"/>
<path d="M299.256 247.079L277.23 284.142L334.713 267.147L299.256 247.079Z" stroke="white" stroke-width="0.785749" stroke-linejoin="round"/>
<path d="M216.995 344.32L235.879 304.607L180.691 358.05L216.995 344.32Z" stroke="white" stroke-width="0.785749" stroke-linejoin="round"/>
<path d="M254.871 269.183L235.879 304.607L299.251 247.079L254.871 269.183Z" stroke="white" stroke-width="0.785749" stroke-linejoin="round"/>
<path d="M277.211 284.142L299.251 247.079L235.879 304.607L277.211 284.142Z" stroke="white" stroke-width="0.785749" stroke-linejoin="round"/>
<path d="M235.883 304.607L254.875 269.183L197.488 330.153L235.883 304.607Z" stroke="white" stroke-width="0.785749" stroke-linejoin="round"/>
<path d="M282.063 177.133L247.809 228.622L340.434 123.635L282.063 177.133Z" stroke="white" stroke-width="0.785749" stroke-linejoin="round"/>
<path d="M340.428 123.635L299.055 185.821L381.433 109.605L340.428 123.635Z" stroke="white" stroke-width="0.785749" stroke-linejoin="round"/>
<path d="M299.061 185.821L340.434 123.635L247.809 228.622L299.061 185.821Z" stroke="white" stroke-width="0.785749" stroke-linejoin="round"/>
<path d="M381.434 60.2737L340.43 123.635L424.707 41.5714L381.434 60.2737Z" stroke="white" stroke-width="0.785749" stroke-linejoin="round"/>
<path d="M381.434 109.605L424.707 41.5714L340.43 123.635L381.434 109.605Z" stroke="white" stroke-width="0.785749" stroke-linejoin="round"/>
<path d="M340.437 123.635L381.442 60.2737L282.066 177.133L340.437 123.635Z" stroke="white" stroke-width="0.785749" stroke-linejoin="round"/>
<path d="M299.065 185.821L264.195 233.458L338.047 173.622L299.065 185.821Z" stroke="white" stroke-width="0.785749" stroke-linejoin="round"/>
<path d="M338.043 173.622L302.805 218.349L363.949 197.925L338.043 173.622Z" stroke="white" stroke-width="0.785749" stroke-linejoin="round"/>
<path d="M302.809 218.349L338.047 173.622L264.195 233.458L302.809 218.349Z" stroke="white" stroke-width="0.785749" stroke-linejoin="round"/>
<path d="M381.439 109.605L338.043 173.622L405.787 138.99L381.439 109.605Z" stroke="white" stroke-width="0.785749" stroke-linejoin="round"/>
<path d="M363.949 197.925L405.787 138.99L338.043 173.622L363.949 197.925Z" stroke="white" stroke-width="0.785749" stroke-linejoin="round"/>
<path d="M338.037 173.622L381.433 109.605L299.055 185.821L338.037 173.622Z" stroke="white" stroke-width="0.785749" stroke-linejoin="round"/>
<path d="M405.791 138.99L363.953 197.925L421.723 199.086L405.791 138.99Z" stroke="white" stroke-width="0.785749" stroke-linejoin="round"/>
<path d="M302.801 218.349L277.004 244.592L331.959 232.816L302.801 218.349Z" stroke="white" stroke-width="0.785749" stroke-linejoin="round"/>
<path d="M331.951 232.816L312.535 242.584L356.341 268.909L331.951 232.816Z" stroke="white" stroke-width="0.785749" stroke-linejoin="round"/>
<path d="M312.543 242.584L331.959 232.816L277.004 244.592L312.543 242.584Z" stroke="white" stroke-width="0.785749" stroke-linejoin="round"/>
<path d="M363.944 197.925L331.957 232.816L382.95 248.8L363.944 197.925Z" stroke="white" stroke-width="0.785749" stroke-linejoin="round"/>
<path d="M356.347 268.909L382.95 248.8L331.957 232.816L356.347 268.909Z" stroke="white" stroke-width="0.785749" stroke-linejoin="round"/>
<path d="M331.963 232.816L363.949 197.925L302.805 218.349L331.963 232.816Z" stroke="white" stroke-width="0.785749" stroke-linejoin="round"/>
<path d="M382.955 248.8L356.352 268.91L408.465 299.634L382.955 248.8Z" stroke="white" stroke-width="0.785749" stroke-linejoin="round"/>
<path d="M382.959 248.8L421.723 199.086L363.953 197.925L382.959 248.8Z" stroke="white" stroke-width="0.785749" stroke-linejoin="round"/>
<path d="M312.549 242.584L304.883 241.86L299.254 247.079L344.59 261.068L312.549 242.584Z" stroke="white" stroke-width="0.785749" stroke-linejoin="round"/>
<path d="M344.59 261.068L341.502 260.631L334.711 267.147L378.721 299.839L344.59 261.068Z" stroke="white" stroke-width="0.785749" stroke-linejoin="round"/>
<path d="M334.711 267.147L341.502 260.631L344.59 261.068L299.254 247.079L334.711 267.147Z" stroke="white" stroke-width="0.785749" stroke-linejoin="round"/>
<path d="M356.346 268.909L350.785 268.117L344.582 261.068L387.759 304.005L356.346 268.909Z" stroke="white" stroke-width="0.785749" stroke-linejoin="round"/>
<path d="M378.714 299.839L387.759 304.005L344.582 261.068L378.714 299.839Z" stroke="white" stroke-width="0.785749" stroke-linejoin="round"/>
<path d="M344.576 261.068L350.766 268.117L356.341 268.909L312.535 242.584L344.576 261.068Z" stroke="white" stroke-width="0.785749" stroke-linejoin="round"/>
<path d="M387.764 304.005L395.703 306.478L408.465 299.634L356.352 268.909L387.764 304.005Z" stroke="white" stroke-width="0.785749" stroke-linejoin="round"/>
<path d="M-16.3737 376.301L-36.8828 389.853L23.1413 387.217L-16.3737 376.301Z" stroke="white" stroke-width="0.785749" stroke-linejoin="round"/>
<path d="M3.60117 361.246L-16.375 376.301L45.972 373.979L3.60117 361.246Z" stroke="white" stroke-width="0.785749" stroke-linejoin="round"/>
<path d="M23.14 387.217L45.972 373.979L-16.375 376.301L23.14 387.217Z" stroke="white" stroke-width="0.785749" stroke-linejoin="round"/>
<path d="M-16.3724 376.301L3.59004 361.246L-50.9414 369.429L-16.3724 376.301Z" stroke="white" stroke-width="0.785749" stroke-linejoin="round"/>
<path d="M45.9646 373.979L72.9502 362.886L3.59375 361.246L45.9646 373.979Z" stroke="white" stroke-width="0.785749" stroke-linejoin="round"/>
<path d="M45.9726 373.979L23.1406 387.217L92.5791 390.331L45.9726 373.979Z" stroke="white" stroke-width="0.785749" stroke-linejoin="round"/>
<path d="M66.8641 402.135L92.5791 390.331L23.1406 387.217L66.8641 402.135Z" stroke="white" stroke-width="0.785749" stroke-linejoin="round"/>
<path d="M-36.8909 389.853L-59.9414 400.96L1.17582 400.181L-36.8909 389.853Z" stroke="white" stroke-width="0.785749" stroke-linejoin="round"/>
<path d="M1.18492 400.181L-22.3438 411.834L43.4191 414.894L1.18492 400.181Z" stroke="white" stroke-width="0.785749" stroke-linejoin="round"/>
<path d="M66.8568 402.135L43.4102 414.894L113.231 419.662L66.8568 402.135Z" stroke="white" stroke-width="0.785749" stroke-linejoin="round"/>
<path d="M-22.3528 411.834L1.17582 400.181L-59.9414 400.96L-22.3528 411.834Z" stroke="white" stroke-width="0.785749" stroke-linejoin="round"/>
<path d="M23.1409 387.217L1.18359 400.181L66.8644 402.135L23.1409 387.217Z" stroke="white" stroke-width="0.785749" stroke-linejoin="round"/>
<path d="M43.4178 414.894L66.8644 402.135L1.18359 400.181L43.4178 414.894Z" stroke="white" stroke-width="0.785749" stroke-linejoin="round"/>
<path d="M1.18394 400.181L23.1413 387.217L-36.8828 389.853L1.18394 400.181Z" stroke="white" stroke-width="0.785749" stroke-linejoin="round"/>
<path d="M72.9583 362.886L45.9727 373.979L124.306 382.012L72.9583 362.886Z" stroke="white" stroke-width="0.785749" stroke-linejoin="round"/>
<path d="M124.307 382.012L92.5938 390.331L172.662 400.345L124.307 382.012Z" stroke="white" stroke-width="0.785749" stroke-linejoin="round"/>
<path d="M92.5928 390.331L124.306 382.012L45.9727 373.979L92.5928 390.331Z" stroke="white" stroke-width="0.785749" stroke-linejoin="round"/>
<path d="M158.883 376.656L124.301 382.012L195.98 379.156L158.883 376.656Z" stroke="white" stroke-width="0.785749" stroke-linejoin="round"/>
<path d="M172.656 400.345L195.98 379.156L124.301 382.012L172.656 400.345Z" stroke="white" stroke-width="0.785749" stroke-linejoin="round"/>
<path d="M124.305 382.012L158.887 376.656L72.957 362.886L124.305 382.012Z" stroke="white" stroke-width="0.785749" stroke-linejoin="round"/>
<path d="M195.98 379.156L172.656 400.345L235.017 380.809L195.98 379.156Z" stroke="white" stroke-width="0.785749" stroke-linejoin="round"/>
<path d="M195.987 379.156L217.002 344.32L158.891 376.656L195.987 379.156Z" stroke="white" stroke-width="0.785749" stroke-linejoin="round"/>
<path d="M216.995 344.32L195.98 379.156L255.649 336.232L216.995 344.32Z" stroke="white" stroke-width="0.785749" stroke-linejoin="round"/>
<path d="M255.652 336.232L235.02 380.809L298.596 342.23L255.652 336.232Z" stroke="white" stroke-width="0.785749" stroke-linejoin="round"/>
<path d="M235.017 380.809L255.649 336.232L195.98 379.156L235.017 380.809Z" stroke="white" stroke-width="0.785749" stroke-linejoin="round"/>
<path d="M277.217 284.142L255.656 336.232L319.848 295.658L277.217 284.142Z" stroke="white" stroke-width="0.785749" stroke-linejoin="round"/>
<path d="M298.601 342.23L319.848 295.658L255.656 336.232L298.601 342.23Z" stroke="white" stroke-width="0.785749" stroke-linejoin="round"/>
<path d="M255.647 336.232L277.208 284.142L216.992 344.32L255.647 336.232Z" stroke="white" stroke-width="0.785749" stroke-linejoin="round"/>
<path d="M319.847 295.658L334.713 267.147L277.23 284.142L319.847 295.658Z" stroke="white" stroke-width="0.785749" stroke-linejoin="round"/>
<path d="M92.5958 390.331L66.8672 402.135L141.43 408.788L92.5958 390.331Z" stroke="white" stroke-width="0.785749" stroke-linejoin="round"/>
<path d="M141.422 408.788L113.234 419.662L187.633 426.329L141.422 408.788Z" stroke="white" stroke-width="0.785749" stroke-linejoin="round"/>
<path d="M113.242 419.662L141.43 408.788L66.8672 402.135L113.242 419.662Z" stroke="white" stroke-width="0.785749" stroke-linejoin="round"/>
<path d="M172.659 400.345L141.438 408.788L212.379 410.782L172.659 400.345Z" stroke="white" stroke-width="0.785749" stroke-linejoin="round"/>
<path d="M187.634 426.329L212.379 410.782L141.438 408.788L187.634 426.329Z" stroke="white" stroke-width="0.785749" stroke-linejoin="round"/>
<path d="M141.427 408.788L172.662 400.345L92.5938 390.331L141.427 408.788Z" stroke="white" stroke-width="0.785749" stroke-linejoin="round"/>
<path d="M319.848 295.658L298.602 342.23L360.211 330.249L319.848 295.658Z" stroke="white" stroke-width="0.785749" stroke-linejoin="round"/>
<path d="M343.514 365.987L360.211 330.249L298.602 342.23L343.514 365.987Z" stroke="white" stroke-width="0.785749" stroke-linejoin="round"/>
<path d="M212.378 410.782L187.633 426.329L254.393 421.643L212.378 410.782Z" stroke="white" stroke-width="0.785749" stroke-linejoin="round"/>
<path d="M212.376 410.782L235.017 380.809L172.656 400.345L212.376 410.782Z" stroke="white" stroke-width="0.785749" stroke-linejoin="round"/>
<path d="M235.02 380.809L212.379 410.782L276.598 390.004L235.02 380.809Z" stroke="white" stroke-width="0.785749" stroke-linejoin="round"/>
<path d="M276.602 390.003L254.398 421.643L321.733 405.782L276.602 390.003Z" stroke="white" stroke-width="0.785749" stroke-linejoin="round"/>
<path d="M254.394 421.643L276.598 390.003L212.379 410.782L254.394 421.643Z" stroke="white" stroke-width="0.785749" stroke-linejoin="round"/>
<path d="M298.6 342.23L276.602 390.004L343.512 365.987L298.6 342.23Z" stroke="white" stroke-width="0.785749" stroke-linejoin="round"/>
<path d="M321.732 405.782L343.512 365.987L276.602 390.004L321.732 405.782Z" stroke="white" stroke-width="0.785749" stroke-linejoin="round"/>
<path d="M276.598 390.004L298.596 342.23L235.02 380.809L276.598 390.004Z" stroke="white" stroke-width="0.785749" stroke-linejoin="round"/>
<path d="M-22.3521 411.834L-49.0234 422.476L19.3627 427.49L-22.3521 411.834Z" stroke="white" stroke-width="0.785749" stroke-linejoin="round"/>
<path d="M-9.3308 438.009L19.3627 427.49L-49.0234 422.476L-9.3308 438.009Z" stroke="white" stroke-width="0.785749" stroke-linejoin="round"/>
<path d="M43.4074 414.894L19.3594 427.49L88.6886 432.736L43.4074 414.894Z" stroke="white" stroke-width="0.785749" stroke-linejoin="round"/>
<path d="M19.3711 427.49L43.4191 414.894L-22.3438 411.834L19.3711 427.49Z" stroke="white" stroke-width="0.785749" stroke-linejoin="round"/>
<path d="M88.6913 432.736L113.231 419.662L43.4102 414.894L88.6913 432.736Z" stroke="white" stroke-width="0.785749" stroke-linejoin="round"/>
<path d="M113.227 419.662L88.6875 432.736L159.793 437.094L113.227 419.662Z" stroke="white" stroke-width="0.785749" stroke-linejoin="round"/>
<path d="M159.8 437.094L187.633 426.329L113.234 419.662L159.8 437.094Z" stroke="white" stroke-width="0.785749" stroke-linejoin="round"/>
<path d="M230.181 438.569L254.393 421.643L187.633 426.329L230.181 438.569Z" stroke="white" stroke-width="0.785749" stroke-linejoin="round"/>
<path d="M254.399 421.643L230.188 438.569L299.23 432.463L254.399 421.643Z" stroke="white" stroke-width="0.785749" stroke-linejoin="round"/>
<path d="M321.719 405.782L299.215 432.463L369.159 421.438L321.719 405.782Z" stroke="white" stroke-width="0.785749" stroke-linejoin="round"/>
<path d="M347.42 436.629L369.159 421.438L299.215 432.463L347.42 436.629Z" stroke="white" stroke-width="0.785749" stroke-linejoin="round"/>
<path d="M299.229 432.463L321.733 405.782L254.398 421.643L299.229 432.463Z" stroke="white" stroke-width="0.785749" stroke-linejoin="round"/>
<path d="M343.514 365.987L321.734 405.782L389.014 394.73L343.514 365.987Z" stroke="white" stroke-width="0.785749" stroke-linejoin="round"/>
<path d="M369.174 421.438L389.014 394.73L321.734 405.782L369.174 421.438Z" stroke="white" stroke-width="0.785749" stroke-linejoin="round"/>
<path d="M369.164 421.438L347.426 436.629L420.116 424.225L369.164 421.438Z" stroke="white" stroke-width="0.785749" stroke-linejoin="round"/>
<path d="M334.71 267.147L319.844 295.658L371.219 307.352L334.71 267.147Z" stroke="white" stroke-width="0.785749" stroke-linejoin="round"/>
<path d="M371.216 307.352L360.203 330.249L413.355 350.249L371.216 307.352Z" stroke="white" stroke-width="0.785749" stroke-linejoin="round"/>
<path d="M360.206 330.249L371.219 307.352L319.844 295.658L360.206 330.249Z" stroke="white" stroke-width="0.785749" stroke-linejoin="round"/>
<path d="M378.72 299.839L371.219 307.352L420.995 340.167L378.72 299.839Z" stroke="white" stroke-width="0.785749" stroke-linejoin="round"/>
<path d="M413.357 350.249L420.995 340.167L371.219 307.352L413.357 350.249Z" stroke="white" stroke-width="0.785749" stroke-linejoin="round"/>
<path d="M371.22 307.352L378.721 299.839L334.711 267.147L371.22 307.352Z" stroke="white" stroke-width="0.785749" stroke-linejoin="round"/>
<path d="M360.205 330.249L343.508 365.987L403.682 368.678L360.205 330.249Z" stroke="white" stroke-width="0.785749" stroke-linejoin="round"/>
<path d="M389.007 394.73L403.682 368.678L343.508 365.987L389.007 394.73Z" stroke="white" stroke-width="0.785749" stroke-linejoin="round"/>
<path d="M403.681 368.678L413.355 350.249L360.203 330.249L403.681 368.678Z" stroke="white" stroke-width="0.785749" stroke-linejoin="round"/>
<path d="M389.008 394.73L369.168 421.438L438.511 413.501L389.008 394.73Z" stroke="white" stroke-width="0.785749" stroke-linejoin="round"/>
<path d="M420.12 424.211L438.511 413.501L369.168 421.438L420.12 424.211Z" stroke="white" stroke-width="0.785749" stroke-linejoin="round"/>
</g>
<defs>
<clipPath id="clip0_20225_38882">
<rect width="1257" height="424" fill="white" transform="translate(-410)"/>
</clipPath>
</defs>
</svg>
