<svg width="240" height="106" viewBox="0 0 240 106" fill="none" xmlns="http://www.w3.org/2000/svg">
<mask id="mask0_20225_42073" style="mask-type:alpha" maskUnits="userSpaceOnUse" x="0" y="0" width="133" height="78">
<path d="M112.98 31.4496C111.233 20.27 101.542 11.6895 89.8789 11.6895C85.4915 11.6895 81.2755 12.9033 77.6188 15.1675C72.0556 5.81797 62.0403 0 50.9141 0C33.7262 0 19.7422 13.984 19.7422 31.1719C19.7422 31.2784 19.7422 31.3888 19.7461 31.4953C8.69955 33.356 0 42.9868 0 54.5508C0 67.4427 10.7468 77.9297 23.6387 77.9297H109.361C122.253 77.9297 133 67.4427 133 54.5508C133 42.8881 124.16 33.1962 112.98 31.4496Z" fill="black"/>
</mask>
<g mask="url(#mask0_20225_42073)">
<g opacity="0.8" clip-path="url(#clip0_20225_42073)">
<path d="M-4.07054 -1.2569L-13.3086 3.33151L1.20364 -0.0485653L-4.07054 -1.2569Z" stroke="white" stroke-width="0.204111" stroke-linejoin="round"/>
<path d="M10.086 -5.17994L1.20312 -0.0486007L15.5644 -3.71851L10.086 -5.17994Z" stroke="white" stroke-width="0.204111" stroke-linejoin="round"/>
<path d="M1.20778 -0.0486007L10.0907 -5.17994L-4.06641 -1.25693L1.20778 -0.0486007Z" stroke="white" stroke-width="0.204111" stroke-linejoin="round"/>
<path d="M-7.59758 4.63779L1.20364 -0.0485992L-13.3086 3.33147L-7.59758 4.63779Z" stroke="white" stroke-width="0.204111" stroke-linejoin="round"/>
<path d="M1.20748 -0.0485992L-7.59375 4.63779L6.37966 1.08218L1.20748 -0.0485992Z" stroke="white" stroke-width="0.204111" stroke-linejoin="round"/>
<path d="M6.38092 1.08218L-2.54688 5.095L12.4756 2.04967L6.38092 1.08218Z" stroke="white" stroke-width="0.204111" stroke-linejoin="round"/>
<path d="M-2.54814 5.095L6.37966 1.08218L-7.59375 4.63779L-2.54814 5.095Z" stroke="white" stroke-width="0.204111" stroke-linejoin="round"/>
<path d="M15.568 -3.71848L6.37891 1.0822L22.5771 -1.36713L15.568 -3.71848Z" stroke="white" stroke-width="0.204111" stroke-linejoin="round"/>
<path d="M12.4736 2.04968L22.5771 -1.36713L6.37891 1.0822L12.4736 2.04968Z" stroke="white" stroke-width="0.204111" stroke-linejoin="round"/>
<path d="M6.37531 1.0822L15.5644 -3.71848L1.20312 -0.0485769L6.37531 1.0822Z" stroke="white" stroke-width="0.204111" stroke-linejoin="round"/>
<path d="M22.5722 -1.36713L12.4688 2.04968L32.2675 1.98845L22.5722 -1.36713Z" stroke="white" stroke-width="0.204111" stroke-linejoin="round"/>
<path d="M21.6619 3.67031L32.2675 1.98844L12.4688 2.04967L21.6619 3.67031Z" stroke="white" stroke-width="0.204111" stroke-linejoin="round"/>
<path d="M-2.55054 5.09499L-10.168 9.14455L3.96465 5.25419L-2.55054 5.09499Z" stroke="white" stroke-width="0.204111" stroke-linejoin="round"/>
<path d="M3.96865 5.2542L-1.28516 10.3815L15.007 7.93621L3.96865 5.2542Z" stroke="white" stroke-width="0.204111" stroke-linejoin="round"/>
<path d="M21.6659 3.67029L15.0078 7.9362L35.7291 8.42607L21.6659 3.67029Z" stroke="white" stroke-width="0.204111" stroke-linejoin="round"/>
<path d="M-1.28915 10.3815L3.96465 5.2542L-10.168 9.14456L-1.28915 10.3815Z" stroke="white" stroke-width="0.204111" stroke-linejoin="round"/>
<path d="M12.4722 2.04967L3.96484 5.25421L21.6653 3.67031L12.4722 2.04967Z" stroke="white" stroke-width="0.204111" stroke-linejoin="round"/>
<path d="M15.0073 7.9362L21.6653 3.67029L3.96484 5.25418L15.0073 7.9362Z" stroke="white" stroke-width="0.204111" stroke-linejoin="round"/>
<path d="M3.96832 5.25421L12.4756 2.04967L-2.54688 5.09501L3.96832 5.25421Z" stroke="white" stroke-width="0.204111" stroke-linejoin="round"/>
<path d="M44.1815 -0.942581L32.2695 1.98845L57.5589 5.94411L44.1815 -0.942581Z" stroke="white" stroke-width="0.204111" stroke-linejoin="round"/>
<path d="M32.2695 1.98845L44.1814 -0.942579L22.5742 -1.36713L32.2695 1.98845Z" stroke="white" stroke-width="0.204111" stroke-linejoin="round"/>
<path d="M57.5649 5.94412L62.9983 -1.13852L44.1875 -0.942575L57.5649 5.94412Z" stroke="white" stroke-width="0.204111" stroke-linejoin="round"/>
<path d="M62.992 -1.13855L57.5586 5.94409L72.9322 -1.3549L62.992 -1.13855Z" stroke="white" stroke-width="0.204111" stroke-linejoin="round"/>
<path d="M32.2696 1.98844L21.6641 3.67031L46.2798 6.86668L32.2696 1.98844Z" stroke="white" stroke-width="0.204111" stroke-linejoin="round"/>
<path d="M46.283 6.86669L35.7305 8.4261L61.4035 12.541L46.283 6.86669Z" stroke="white" stroke-width="0.204111" stroke-linejoin="round"/>
<path d="M35.7273 8.42607L46.2798 6.86666L21.6641 3.67029L35.7273 8.42607Z" stroke="white" stroke-width="0.204111" stroke-linejoin="round"/>
<path d="M57.5604 5.9441L46.2812 6.86668L67.917 6.98099L57.5604 5.9441Z" stroke="white" stroke-width="0.204111" stroke-linejoin="round"/>
<path d="M61.4018 12.541L67.917 6.98099L46.2812 6.86669L61.4018 12.541Z" stroke="white" stroke-width="0.204111" stroke-linejoin="round"/>
<path d="M46.2797 6.86668L57.5589 5.9441L32.2695 1.98844L46.2797 6.86668Z" stroke="white" stroke-width="0.204111" stroke-linejoin="round"/>
<path d="M67.9175 6.98099L61.4023 12.541L78.764 2.87836L67.9175 6.98099Z" stroke="white" stroke-width="0.204111" stroke-linejoin="round"/>
<path d="M67.9152 6.98097L72.9322 -1.3549L57.5586 5.94409L67.9152 6.98097Z" stroke="white" stroke-width="0.204111" stroke-linejoin="round"/>
<path d="M72.935 -1.35489L67.918 6.98098L84.406 -8.98863L72.935 -1.35489Z" stroke="white" stroke-width="0.204111" stroke-linejoin="round"/>
<path d="M84.4073 -8.98864L78.7656 2.87835L96.756 -15.1038L84.4073 -8.98864Z" stroke="white" stroke-width="0.204111" stroke-linejoin="round"/>
<path d="M78.7644 2.87836L84.406 -8.98863L67.918 6.98098L78.7644 2.87836Z" stroke="white" stroke-width="0.204111" stroke-linejoin="round"/>
<path d="M-7.12503 14.6841L-14.0117 17.9172L2.90909 16.4843L-7.12503 14.6841Z" stroke="white" stroke-width="0.204111" stroke-linejoin="round"/>
<path d="M-1.2915 10.3815L-7.125 14.6841L9.03652 12.4349L-1.2915 10.3815Z" stroke="white" stroke-width="0.204111" stroke-linejoin="round"/>
<path d="M9.04147 12.4348L2.91406 16.4844L20.8472 15.6965L9.04147 12.4348Z" stroke="white" stroke-width="0.204111" stroke-linejoin="round"/>
<path d="M2.90911 16.4844L9.03652 12.4348L-7.125 14.6841L2.90911 16.4844Z" stroke="white" stroke-width="0.204111" stroke-linejoin="round"/>
<path d="M15.0112 7.93623L9.04297 12.4348L27.6701 11.7409L15.0112 7.93623Z" stroke="white" stroke-width="0.204111" stroke-linejoin="round"/>
<path d="M20.8487 15.6965L27.6701 11.7408L9.04297 12.4348L20.8487 15.6965Z" stroke="white" stroke-width="0.204111" stroke-linejoin="round"/>
<path d="M9.04286 12.4348L15.007 7.93623L-1.28516 10.3815L9.04286 12.4348Z" stroke="white" stroke-width="0.204111" stroke-linejoin="round"/>
<path d="M27.6668 11.7409L35.7291 8.4261L15.0078 7.93623L27.6668 11.7409Z" stroke="white" stroke-width="0.204111" stroke-linejoin="round"/>
<path d="M27.6652 11.7408L20.8438 15.6965L41.5896 16.6272L27.6652 11.7408Z" stroke="white" stroke-width="0.204111" stroke-linejoin="round"/>
<path d="M33.9068 20.1543L41.5896 16.6273L20.8438 15.6965L33.9068 20.1543Z" stroke="white" stroke-width="0.204111" stroke-linejoin="round"/>
<path d="M-3.97202 19.8032L-11.9609 22.5138L7.25816 23.0527L-3.97202 19.8032Z" stroke="white" stroke-width="0.204111" stroke-linejoin="round"/>
<path d="M-3.97761 19.8032L2.90909 16.4844L-14.0117 17.9172L-3.97761 19.8032Z" stroke="white" stroke-width="0.204111" stroke-linejoin="round"/>
<path d="M2.91013 16.4844L-3.97656 19.8032L14.2832 19.5705L2.91013 16.4844Z" stroke="white" stroke-width="0.204111" stroke-linejoin="round"/>
<path d="M14.2874 19.5705L7.25781 23.0527L26.9055 23.9671L14.2874 19.5705Z" stroke="white" stroke-width="0.204111" stroke-linejoin="round"/>
<path d="M33.9074 20.1543L26.9023 23.9671L47.7624 25.3918L33.9074 20.1543Z" stroke="white" stroke-width="0.204111" stroke-linejoin="round"/>
<path d="M7.25361 23.0527L14.2832 19.5705L-3.97656 19.8032L7.25361 23.0527Z" stroke="white" stroke-width="0.204111" stroke-linejoin="round"/>
<path d="M20.8492 15.6965L14.2891 19.5705L33.9122 20.1543L20.8492 15.6965Z" stroke="white" stroke-width="0.204111" stroke-linejoin="round"/>
<path d="M26.9072 23.9671L33.9122 20.1543L14.2891 19.5705L26.9072 23.9671Z" stroke="white" stroke-width="0.204111" stroke-linejoin="round"/>
<path d="M14.2871 19.5705L20.8472 15.6965L2.91406 16.4844L14.2871 19.5705Z" stroke="white" stroke-width="0.204111" stroke-linejoin="round"/>
<path d="M35.7303 8.42611L27.668 11.7409L51.0713 14.1412L35.7303 8.42611Z" stroke="white" stroke-width="0.204111" stroke-linejoin="round"/>
<path d="M51.0725 14.1412L41.5977 16.6273L65.5194 19.6195L51.0725 14.1412Z" stroke="white" stroke-width="0.204111" stroke-linejoin="round"/>
<path d="M41.5965 16.6272L51.0713 14.1412L27.668 11.7408L41.5965 16.6272Z" stroke="white" stroke-width="0.204111" stroke-linejoin="round"/>
<path d="M61.3985 12.5409L51.0664 14.1412L72.4817 13.288L61.3985 12.5409Z" stroke="white" stroke-width="0.204111" stroke-linejoin="round"/>
<path d="M65.5134 19.6195L72.4817 13.288L51.0664 14.1412L65.5134 19.6195Z" stroke="white" stroke-width="0.204111" stroke-linejoin="round"/>
<path d="M51.0714 14.1412L61.4035 12.541L35.7305 8.42611L51.0714 14.1412Z" stroke="white" stroke-width="0.204111" stroke-linejoin="round"/>
<path d="M72.4878 13.288L65.5195 19.6195L84.1508 13.782L72.4878 13.288Z" stroke="white" stroke-width="0.204111" stroke-linejoin="round"/>
<path d="M72.4855 13.288L78.764 2.87836L61.4023 12.541L72.4855 13.288Z" stroke="white" stroke-width="0.204111" stroke-linejoin="round"/>
<path d="M78.7628 2.87837L72.4844 13.288L90.3114 0.4617L78.7628 2.87837Z" stroke="white" stroke-width="0.204111" stroke-linejoin="round"/>
<path d="M90.3126 0.4617L84.1484 13.782L103.143 2.25379L90.3126 0.4617Z" stroke="white" stroke-width="0.204111" stroke-linejoin="round"/>
<path d="M84.1473 13.782L90.3114 0.4617L72.4844 13.288L84.1473 13.782Z" stroke="white" stroke-width="0.204111" stroke-linejoin="round"/>
<path d="M96.7582 -15.1038L90.3164 0.461678L109.495 -11.6625L96.7582 -15.1038Z" stroke="white" stroke-width="0.204111" stroke-linejoin="round"/>
<path d="M103.147 2.25377L109.495 -11.6625L90.3164 0.461682L103.147 2.25377Z" stroke="white" stroke-width="0.204111" stroke-linejoin="round"/>
<path d="M90.3142 0.461677L96.756 -15.1038L78.7656 2.87835L90.3142 0.461677Z" stroke="white" stroke-width="0.204111" stroke-linejoin="round"/>
<path d="M41.597 16.6272L33.9102 20.1543L56.1868 22.1423L41.597 16.6272Z" stroke="white" stroke-width="0.204111" stroke-linejoin="round"/>
<path d="M56.1833 22.1423L47.7617 25.3917L69.9894 27.3839L56.1833 22.1423Z" stroke="white" stroke-width="0.204111" stroke-linejoin="round"/>
<path d="M47.7652 25.3918L56.1868 22.1423L33.9102 20.1543L47.7652 25.3918Z" stroke="white" stroke-width="0.204111" stroke-linejoin="round"/>
<path d="M65.5193 19.6195L56.1914 22.1424L77.3862 22.7384L65.5193 19.6195Z" stroke="white" stroke-width="0.204111" stroke-linejoin="round"/>
<path d="M69.9933 27.3839L77.3862 22.7383L56.1914 22.1423L69.9933 27.3839Z" stroke="white" stroke-width="0.204111" stroke-linejoin="round"/>
<path d="M56.1875 22.1423L65.5194 19.6195L41.5977 16.6272L56.1875 22.1423Z" stroke="white" stroke-width="0.204111" stroke-linejoin="round"/>
<path d="M109.492 -11.6625L103.145 2.25377L121.551 -1.32632L109.492 -11.6625Z" stroke="white" stroke-width="0.204111" stroke-linejoin="round"/>
<path d="M116.563 9.35275L121.551 -1.32632L103.145 2.25378L116.563 9.35275Z" stroke="white" stroke-width="0.204111" stroke-linejoin="round"/>
<path d="M77.389 22.7384L69.9961 27.3839L89.9418 25.9837L77.389 22.7384Z" stroke="white" stroke-width="0.204111" stroke-linejoin="round"/>
<path d="M77.3865 22.7383L84.1508 13.782L65.5195 19.6195L77.3865 22.7383Z" stroke="white" stroke-width="0.204111" stroke-linejoin="round"/>
<path d="M84.151 13.782L77.3867 22.7383L96.5731 16.5293L84.151 13.782Z" stroke="white" stroke-width="0.204111" stroke-linejoin="round"/>
<path d="M96.575 16.5293L89.9414 25.9837L110.059 21.2442L96.575 16.5293Z" stroke="white" stroke-width="0.204111" stroke-linejoin="round"/>
<path d="M89.9395 25.9837L96.5731 16.5293L77.3867 22.7383L89.9395 25.9837Z" stroke="white" stroke-width="0.204111" stroke-linejoin="round"/>
<path d="M103.147 2.2538L96.5742 16.5293L116.565 9.35277L103.147 2.2538Z" stroke="white" stroke-width="0.204111" stroke-linejoin="round"/>
<path d="M110.058 21.2443L116.565 9.35276L96.5742 16.5293L110.058 21.2443Z" stroke="white" stroke-width="0.204111" stroke-linejoin="round"/>
<path d="M96.5706 16.5293L103.143 2.2538L84.1484 13.782L96.5706 16.5293Z" stroke="white" stroke-width="0.204111" stroke-linejoin="round"/>
<path d="M-0.717096 26.2327L-10.0898 29.0658L11.1417 30.8742L-0.717096 26.2327Z" stroke="white" stroke-width="0.204111" stroke-linejoin="round"/>
<path d="M-0.710333 26.2327L7.25816 23.0527L-11.9609 22.5138L-0.710333 26.2327Z" stroke="white" stroke-width="0.204111" stroke-linejoin="round"/>
<path d="M7.25755 23.0527L-0.710938 26.2327L19.7205 27.7309L7.25755 23.0527Z" stroke="white" stroke-width="0.204111" stroke-linejoin="round"/>
<path d="M19.7172 27.7309L11.1445 30.8742L32.3802 32.8949L19.7172 27.7309Z" stroke="white" stroke-width="0.204111" stroke-linejoin="round"/>
<path d="M11.1479 30.8742L19.7205 27.7309L-0.710938 26.2327L11.1479 30.8742Z" stroke="white" stroke-width="0.204111" stroke-linejoin="round"/>
<path d="M26.9035 23.9671L19.7188 27.7309L40.4319 29.2985L26.9035 23.9671Z" stroke="white" stroke-width="0.204111" stroke-linejoin="round"/>
<path d="M32.3818 32.8949L40.4319 29.2985L19.7188 27.7309L32.3818 32.8949Z" stroke="white" stroke-width="0.204111" stroke-linejoin="round"/>
<path d="M19.7208 27.7309L26.9055 23.9671L7.25781 23.0527L19.7208 27.7309Z" stroke="white" stroke-width="0.204111" stroke-linejoin="round"/>
<path d="M40.4308 29.2985L47.7624 25.3918L26.9023 23.9671L40.4308 29.2985Z" stroke="white" stroke-width="0.204111" stroke-linejoin="round"/>
<path d="M-10.088 29.0658L-20.3711 30.4945L1.3626 32.4214L-10.088 29.0658Z" stroke="white" stroke-width="0.204111" stroke-linejoin="round"/>
<path d="M-8.89191 32.7316L1.3626 32.4214L-20.3711 30.4945L-8.89191 32.7316Z" stroke="white" stroke-width="0.204111" stroke-linejoin="round"/>
<path d="M40.433 29.2984L32.3828 32.8949L53.6185 34.4175L40.433 29.2984Z" stroke="white" stroke-width="0.204111" stroke-linejoin="round"/>
<path d="M44.8336 37.6548L53.6185 34.4175L32.3828 32.8949L44.8336 37.6548Z" stroke="white" stroke-width="0.204111" stroke-linejoin="round"/>
<path d="M1.36074 32.4214L11.1417 30.8742L-10.0898 29.0658L1.36074 32.4214Z" stroke="white" stroke-width="0.204111" stroke-linejoin="round"/>
<path d="M11.1482 30.8742L1.36719 32.4214L23.1009 35.1319L11.1482 30.8742Z" stroke="white" stroke-width="0.204111" stroke-linejoin="round"/>
<path d="M13.3689 36.1035L23.1009 35.1319L1.36719 32.4214L13.3689 36.1035Z" stroke="white" stroke-width="0.204111" stroke-linejoin="round"/>
<path d="M32.3806 32.8949L23.0977 35.1319L44.8314 37.6548L32.3806 32.8949Z" stroke="white" stroke-width="0.204111" stroke-linejoin="round"/>
<path d="M35.626 39.8592L44.8314 37.6548L23.0977 35.132L35.626 39.8592Z" stroke="white" stroke-width="0.204111" stroke-linejoin="round"/>
<path d="M23.0973 35.1319L32.3802 32.8949L11.1445 30.8742L23.0973 35.1319Z" stroke="white" stroke-width="0.204111" stroke-linejoin="round"/>
<path d="M47.7613 25.3918L40.4297 29.2985L61.6735 30.6007L47.7613 25.3918Z" stroke="white" stroke-width="0.204111" stroke-linejoin="round"/>
<path d="M61.6794 30.6007L53.6211 34.4175L74.8935 34.7564L61.6794 30.6007Z" stroke="white" stroke-width="0.204111" stroke-linejoin="round"/>
<path d="M53.6152 34.4175L61.6735 30.6007L40.4297 29.2984L53.6152 34.4175Z" stroke="white" stroke-width="0.204111" stroke-linejoin="round"/>
<path d="M69.9912 27.3839L61.6758 30.6007L82.7033 31.0416L69.9912 27.3839Z" stroke="white" stroke-width="0.204111" stroke-linejoin="round"/>
<path d="M74.8899 34.7564L82.7033 31.0415L61.6758 30.6007L74.8899 34.7564Z" stroke="white" stroke-width="0.204111" stroke-linejoin="round"/>
<path d="M61.6739 30.6007L69.9894 27.3839L47.7617 25.3918L61.6739 30.6007Z" stroke="white" stroke-width="0.204111" stroke-linejoin="round"/>
<path d="M82.7001 31.0416L74.8867 34.7564L96.302 33.3031L82.7001 31.0416Z" stroke="white" stroke-width="0.204111" stroke-linejoin="round"/>
<path d="M82.7081 31.0416L89.9418 25.9837L69.9961 27.3839L82.7081 31.0416Z" stroke="white" stroke-width="0.204111" stroke-linejoin="round"/>
<path d="M89.9368 25.9837L82.7031 31.0416L103.331 29.2168L89.9368 25.9837Z" stroke="white" stroke-width="0.204111" stroke-linejoin="round"/>
<path d="M103.33 29.2168L96.3047 33.3031L117.732 30.4619L103.33 29.2168Z" stroke="white" stroke-width="0.204111" stroke-linejoin="round"/>
<path d="M96.3051 33.3031L103.331 29.2168L82.7031 31.0416L96.3051 33.3031Z" stroke="white" stroke-width="0.204111" stroke-linejoin="round"/>
<path d="M110.052 21.2443L103.328 29.2168L124.225 25.9225L110.052 21.2443Z" stroke="white" stroke-width="0.204111" stroke-linejoin="round"/>
<path d="M117.73 30.4619L124.225 25.9225L103.328 29.2168L117.73 30.4619Z" stroke="white" stroke-width="0.204111" stroke-linejoin="round"/>
<path d="M103.335 29.2168L110.059 21.2443L89.9414 25.9837L103.335 29.2168Z" stroke="white" stroke-width="0.204111" stroke-linejoin="round"/>
<path d="M116.566 9.35276L110.059 21.2443L130.159 17.9417L116.566 9.35276Z" stroke="white" stroke-width="0.204111" stroke-linejoin="round"/>
<path d="M124.232 25.9225L130.159 17.9418L110.059 21.2443L124.232 25.9225Z" stroke="white" stroke-width="0.204111" stroke-linejoin="round"/>
<path d="M53.617 34.4175L44.832 37.6548L66.5739 39.0019L53.617 34.4175Z" stroke="white" stroke-width="0.204111" stroke-linejoin="round"/>
<path d="M57.8869 42.7412L66.5739 39.0019L44.832 37.6547L57.8869 42.7412Z" stroke="white" stroke-width="0.204111" stroke-linejoin="round"/>
<path d="M74.8897 34.7564L66.5742 39.0019L88.6345 38.1773L74.8897 34.7564Z" stroke="white" stroke-width="0.204111" stroke-linejoin="round"/>
<path d="M80.2619 43.4556L88.6345 38.1773L66.5742 39.0019L80.2619 43.4556Z" stroke="white" stroke-width="0.204111" stroke-linejoin="round"/>
<path d="M66.578 39.0019L74.8935 34.7564L53.6211 34.4175L66.578 39.0019Z" stroke="white" stroke-width="0.204111" stroke-linejoin="round"/>
<path d="M124.229 25.9225L117.734 30.4619L139.452 26.7552L124.229 25.9225Z" stroke="white" stroke-width="0.204111" stroke-linejoin="round"/>
<path d="M133.177 30.1598L139.452 26.7552L117.734 30.4619L133.177 30.1598Z" stroke="white" stroke-width="0.204111" stroke-linejoin="round"/>
<path d="M88.6315 38.1773L96.302 33.3031L74.8867 34.7564L88.6315 38.1773Z" stroke="white" stroke-width="0.204111" stroke-linejoin="round"/>
<path d="M96.2994 33.3031L88.6289 38.1773L110.812 34.887L96.2994 33.3031Z" stroke="white" stroke-width="0.204111" stroke-linejoin="round"/>
<path d="M103.182 40.6062L110.812 34.887L88.6289 38.1773L103.182 40.6062Z" stroke="white" stroke-width="0.204111" stroke-linejoin="round"/>
<path d="M117.736 30.4619L110.82 34.887L133.179 30.1598L117.736 30.4619Z" stroke="white" stroke-width="0.204111" stroke-linejoin="round"/>
<path d="M126.08 35.2748L133.179 30.1598L110.82 34.887L126.08 35.2748Z" stroke="white" stroke-width="0.204111" stroke-linejoin="round"/>
<path d="M110.817 34.887L117.732 30.4619L96.3047 33.3031L110.817 34.887Z" stroke="white" stroke-width="0.204111" stroke-linejoin="round"/>
<path d="M124.837 -8.16811L121.547 -1.32631L137.427 4.65005L124.837 -8.16811Z" stroke="white" stroke-width="0.204111" stroke-linejoin="round"/>
<path d="M127.081 -10.4133L124.84 -8.16812L139.711 1.63736L127.081 -10.4133Z" stroke="white" stroke-width="0.204111" stroke-linejoin="round"/>
<path d="M137.429 4.65005L139.711 1.63737L124.84 -8.16811L137.429 4.65005Z" stroke="white" stroke-width="0.204111" stroke-linejoin="round"/>
<path d="M139.709 1.63736L143.203 -0.681336L127.078 -10.4133L139.709 1.63736Z" stroke="white" stroke-width="0.204111" stroke-linejoin="round"/>
<path d="M121.547 -1.32632L116.559 9.35275L134.537 10.1569L121.547 -1.32632Z" stroke="white" stroke-width="0.204111" stroke-linejoin="round"/>
<path d="M134.541 10.157L130.156 17.9417L149.241 18.8602L134.541 10.157Z" stroke="white" stroke-width="0.204111" stroke-linejoin="round"/>
<path d="M130.152 17.9417L134.537 10.157L116.559 9.35276L130.152 17.9417Z" stroke="white" stroke-width="0.204111" stroke-linejoin="round"/>
<path d="M134.536 10.1569L137.427 4.65004L121.547 -1.32632L134.536 10.1569Z" stroke="white" stroke-width="0.204111" stroke-linejoin="round"/>
<path d="M130.154 17.9418L124.227 25.9225L144.944 23.5507L130.154 17.9418Z" stroke="white" stroke-width="0.204111" stroke-linejoin="round"/>
<path d="M139.449 26.7511L144.944 23.5507L124.227 25.9224L139.449 26.7511Z" stroke="white" stroke-width="0.204111" stroke-linejoin="round"/>
<path d="M144.946 23.5507L149.241 18.8603L130.156 17.9418L144.946 23.5507Z" stroke="white" stroke-width="0.204111" stroke-linejoin="round"/>
<path d="M-8.76664 32.7724L-19.5273 32.3683L3.2881 36.03L-8.76664 32.7724Z" stroke="white" stroke-width="0.204111" stroke-linejoin="round"/>
<path d="M-7.43992 35.4177L3.2881 36.03L-19.5273 32.3683L-7.43992 35.4177Z" stroke="white" stroke-width="0.204111" stroke-linejoin="round"/>
<path d="M3.28661 36.03L-7.44141 35.4177L15.9578 40.9409L3.28661 36.03Z" stroke="white" stroke-width="0.204111" stroke-linejoin="round"/>
<path d="M3.28521 36.03L13.4989 36.1688L-8.76953 32.7724L3.28521 36.03Z" stroke="white" stroke-width="0.204111" stroke-linejoin="round"/>
<path d="M13.5067 36.1688L3.29297 36.03L26.1126 40.9246L13.5067 36.1688Z" stroke="white" stroke-width="0.204111" stroke-linejoin="round"/>
<path d="M26.1093 40.9246L15.9609 40.9409L39.3602 47.0112L26.1093 40.9246Z" stroke="white" stroke-width="0.204111" stroke-linejoin="round"/>
<path d="M15.9642 40.9409L26.1126 40.9246L3.29297 36.03L15.9642 40.9409Z" stroke="white" stroke-width="0.204111" stroke-linejoin="round"/>
<path d="M35.7681 39.949L26.1055 40.9246L48.9291 45.513L35.7681 39.949Z" stroke="white" stroke-width="0.204111" stroke-linejoin="round"/>
<path d="M39.3564 47.0112L48.9291 45.513L26.1055 40.9246L39.3564 47.0112Z" stroke="white" stroke-width="0.204111" stroke-linejoin="round"/>
<path d="M26.1059 40.9246L35.7685 39.9489L13.5 36.1688L26.1059 40.9246Z" stroke="white" stroke-width="0.204111" stroke-linejoin="round"/>
<path d="M48.9345 45.513L58.046 42.8432L35.7734 39.949L48.9345 45.513Z" stroke="white" stroke-width="0.204111" stroke-linejoin="round"/>
<path d="M-7.43941 35.4177L-18.7227 35.3973L5.28073 40.7001L-7.43941 35.4177Z" stroke="white" stroke-width="0.204111" stroke-linejoin="round"/>
<path d="M-5.96574 41.3655L5.28073 40.7001L-18.7227 35.3973L-5.96574 41.3655Z" stroke="white" stroke-width="0.204111" stroke-linejoin="round"/>
<path d="M48.9321 45.513L39.3594 47.0112L62.7627 51.8159L48.9321 45.513Z" stroke="white" stroke-width="0.204111" stroke-linejoin="round"/>
<path d="M53.3001 54.2449L62.7627 51.816L39.3594 47.0112L53.3001 54.2449Z" stroke="white" stroke-width="0.204111" stroke-linejoin="round"/>
<path d="M5.28162 40.7001L-5.96484 41.3655L18.6836 48.3134L5.28162 40.7001Z" stroke="white" stroke-width="0.204111" stroke-linejoin="round"/>
<path d="M5.27873 40.7001L15.9578 40.9409L-7.44141 35.4177L5.27873 40.7001Z" stroke="white" stroke-width="0.204111" stroke-linejoin="round"/>
<path d="M15.9642 40.9409L5.28516 40.7001L29.2927 47.6766L15.9642 40.9409Z" stroke="white" stroke-width="0.204111" stroke-linejoin="round"/>
<path d="M29.2853 47.6766L18.6797 48.3134L43.3281 55.9798L29.2853 47.6766Z" stroke="white" stroke-width="0.204111" stroke-linejoin="round"/>
<path d="M53.3047 54.2449L43.3359 55.9798L67.9925 62.0011L53.3047 54.2449Z" stroke="white" stroke-width="0.204111" stroke-linejoin="round"/>
<path d="M18.6871 48.3134L29.2927 47.6766L5.28516 40.7001L18.6871 48.3134Z" stroke="white" stroke-width="0.204111" stroke-linejoin="round"/>
<path d="M39.3599 47.0112L29.2891 47.6766L53.3006 54.2449L39.3599 47.0112Z" stroke="white" stroke-width="0.204111" stroke-linejoin="round"/>
<path d="M43.3319 55.9798L53.3006 54.2449L29.2891 47.6766L43.3319 55.9798Z" stroke="white" stroke-width="0.204111" stroke-linejoin="round"/>
<path d="M29.2894 47.6766L39.3602 47.0112L15.9609 40.9409L29.2894 47.6766Z" stroke="white" stroke-width="0.204111" stroke-linejoin="round"/>
<path d="M58.049 42.8433L48.9375 45.513L71.7612 48.2603L58.049 42.8433Z" stroke="white" stroke-width="0.204111" stroke-linejoin="round"/>
<path d="M71.7548 48.2603L62.7617 51.816L86.2834 53.4039L71.7548 48.2603Z" stroke="white" stroke-width="0.204111" stroke-linejoin="round"/>
<path d="M62.768 51.8159L71.7612 48.2603L48.9375 45.513L62.768 51.8159Z" stroke="white" stroke-width="0.204111" stroke-linejoin="round"/>
<path d="M80.4366 43.5495L71.7578 48.2604L95.0958 47.1133L80.4366 43.5495Z" stroke="white" stroke-width="0.204111" stroke-linejoin="round"/>
<path d="M86.2864 53.4039L95.0958 47.1132L71.7578 48.2603L86.2864 53.4039Z" stroke="white" stroke-width="0.204111" stroke-linejoin="round"/>
<path d="M71.7552 48.2603L80.434 43.5495L58.043 42.8433L71.7552 48.2603Z" stroke="white" stroke-width="0.204111" stroke-linejoin="round"/>
<path d="M95.0946 47.1132L86.2852 53.4039L110.338 49.3462L95.0946 47.1132Z" stroke="white" stroke-width="0.204111" stroke-linejoin="round"/>
<path d="M95.0967 47.1132L103.375 40.6674L80.4375 43.5495L95.0967 47.1132Z" stroke="white" stroke-width="0.204111" stroke-linejoin="round"/>
<path d="M103.372 40.6674L95.0938 47.1132L118.587 41.8309L103.372 40.6674Z" stroke="white" stroke-width="0.204111" stroke-linejoin="round"/>
<path d="M118.586 41.8308L110.336 49.3462L134.27 41.7329L118.586 41.8308Z" stroke="white" stroke-width="0.204111" stroke-linejoin="round"/>
<path d="M110.337 49.3462L118.591 41.8308L95.0938 47.1132L110.337 49.3462Z" stroke="white" stroke-width="0.204111" stroke-linejoin="round"/>
<path d="M126.276 35.3034L118.594 41.8309L142.16 34.4666L126.276 35.3034Z" stroke="white" stroke-width="0.204111" stroke-linejoin="round"/>
<path d="M134.274 41.7329L142.16 34.4666L118.594 41.8309L134.274 41.7329Z" stroke="white" stroke-width="0.204111" stroke-linejoin="round"/>
<path d="M118.589 41.8308L126.276 35.3034L103.375 40.6674L118.589 41.8308Z" stroke="white" stroke-width="0.204111" stroke-linejoin="round"/>
<path d="M142.157 34.4666L149.477 28.8453L126.273 35.3034L142.157 34.4666Z" stroke="white" stroke-width="0.204111" stroke-linejoin="round"/>
<path d="M62.7634 51.816L53.3008 54.2449L77.3124 58.3108L62.7634 51.816Z" stroke="white" stroke-width="0.204111" stroke-linejoin="round"/>
<path d="M77.312 58.3107L67.9883 62.0011L92.6612 63.9524L77.312 58.3107Z" stroke="white" stroke-width="0.204111" stroke-linejoin="round"/>
<path d="M67.9886 62.0011L77.3124 58.3107L53.3008 54.2449L67.9886 62.0011Z" stroke="white" stroke-width="0.204111" stroke-linejoin="round"/>
<path d="M86.285 53.404L77.3164 58.3108L101.638 57.0779L86.285 53.404Z" stroke="white" stroke-width="0.204111" stroke-linejoin="round"/>
<path d="M92.6614 63.9524L101.638 57.0779L77.3164 58.3107L92.6614 63.9524Z" stroke="white" stroke-width="0.204111" stroke-linejoin="round"/>
<path d="M77.3107 58.3108L86.2834 53.4039L62.7617 51.816L77.3107 58.3108Z" stroke="white" stroke-width="0.204111" stroke-linejoin="round"/>
<path d="M101.637 57.0779L92.6602 63.9524L117.264 59.217L101.637 57.0779Z" stroke="white" stroke-width="0.204111" stroke-linejoin="round"/>
<path d="M101.638 57.0779L110.338 49.3462L86.2852 53.4039L101.638 57.0779Z" stroke="white" stroke-width="0.204111" stroke-linejoin="round"/>
<path d="M110.336 49.3462L101.637 57.0779L125.95 50.1912L110.336 49.3462Z" stroke="white" stroke-width="0.204111" stroke-linejoin="round"/>
<path d="M125.953 50.1912L117.266 59.217L141.673 49.8442L125.953 50.1912Z" stroke="white" stroke-width="0.204111" stroke-linejoin="round"/>
<path d="M117.263 59.217L125.95 50.1912L101.637 57.0779L117.263 59.217Z" stroke="white" stroke-width="0.204111" stroke-linejoin="round"/>
<path d="M134.273 41.7329L125.953 50.1912L150.177 40.6266L134.273 41.7329Z" stroke="white" stroke-width="0.204111" stroke-linejoin="round"/>
<path d="M141.674 49.8442L150.177 40.6266L125.953 50.1912L141.674 49.8442Z" stroke="white" stroke-width="0.204111" stroke-linejoin="round"/>
<path d="M125.95 50.1912L134.27 41.7329L110.336 49.3462L125.95 50.1912Z" stroke="white" stroke-width="0.204111" stroke-linejoin="round"/>
<path d="M-5.9611 41.3655L-17.8281 44.2843L7.49386 49.7912L-5.9611 41.3655Z" stroke="white" stroke-width="0.204111" stroke-linejoin="round"/>
<path d="M-4.32822 51.8935L7.49386 49.7912L-17.8281 44.2843L-4.32822 51.8935Z" stroke="white" stroke-width="0.204111" stroke-linejoin="round"/>
<path d="M7.49004 49.7912L-4.33203 51.8935L21.7043 57.5964L7.49004 49.7912Z" stroke="white" stroke-width="0.204111" stroke-linejoin="round"/>
<path d="M7.49012 49.7912L18.6836 48.3134L-5.96484 41.3655L7.49012 49.7912Z" stroke="white" stroke-width="0.204111" stroke-linejoin="round"/>
<path d="M18.6817 48.3134L7.48828 49.7912L32.8143 57.0412L18.6817 48.3134Z" stroke="white" stroke-width="0.204111" stroke-linejoin="round"/>
<path d="M32.8149 57.0412L21.7031 57.5963L47.7435 63.8462L32.8149 57.0412Z" stroke="white" stroke-width="0.204111" stroke-linejoin="round"/>
<path d="M21.7026 57.5964L32.8143 57.0412L7.48828 49.7912L21.7026 57.5964Z" stroke="white" stroke-width="0.204111" stroke-linejoin="round"/>
<path d="M43.3322 55.9798L32.8164 57.0412L58.1465 63.8626L43.3322 55.9798Z" stroke="white" stroke-width="0.204111" stroke-linejoin="round"/>
<path d="M47.745 63.8462L58.1465 63.8625L32.8164 57.0412L47.745 63.8462Z" stroke="white" stroke-width="0.204111" stroke-linejoin="round"/>
<path d="M32.8123 57.0412L43.3281 55.9798L18.6797 48.3134L32.8123 57.0412Z" stroke="white" stroke-width="0.204111" stroke-linejoin="round"/>
<path d="M58.1503 63.8626L67.9925 62.0011L43.3359 55.9798L58.1503 63.8626Z" stroke="white" stroke-width="0.204111" stroke-linejoin="round"/>
<path d="M-4.33584 51.8935L-16.8438 55.4369L9.94782 59.0904L-4.33584 51.8935Z" stroke="white" stroke-width="0.204111" stroke-linejoin="round"/>
<path d="M-2.50702 62.3684L9.94782 59.0945L-16.8438 55.4369L-2.50702 62.3684Z" stroke="white" stroke-width="0.204111" stroke-linejoin="round"/>
<path d="M58.1476 63.8625L47.7461 63.8462L73.7906 68.8388L58.1476 63.8625Z" stroke="white" stroke-width="0.204111" stroke-linejoin="round"/>
<path d="M63.5443 68.455L73.7906 68.8388L47.7461 63.8462L63.5443 68.455Z" stroke="white" stroke-width="0.204111" stroke-linejoin="round"/>
<path d="M9.95484 59.0905L-2.5 62.3685L25.0958 65.3812L9.95484 59.0905Z" stroke="white" stroke-width="0.204111" stroke-linejoin="round"/>
<path d="M9.95163 59.0904L21.7043 57.5963L-4.33203 51.8935L9.95163 59.0904Z" stroke="white" stroke-width="0.204111" stroke-linejoin="round"/>
<path d="M21.7058 57.5964L9.95312 59.0905L36.7488 63.9156L21.7058 57.5964Z" stroke="white" stroke-width="0.204111" stroke-linejoin="round"/>
<path d="M36.7524 63.9156L25.0977 65.3811L52.6934 68.7204L36.7524 63.9156Z" stroke="white" stroke-width="0.204111" stroke-linejoin="round"/>
<path d="M63.5382 68.4551L52.6836 68.7204L80.2875 71.3045L63.5382 68.4551Z" stroke="white" stroke-width="0.204111" stroke-linejoin="round"/>
<path d="M25.094 65.3811L36.7488 63.9156L9.95312 59.0945L25.094 65.3811Z" stroke="white" stroke-width="0.204111" stroke-linejoin="round"/>
<path d="M47.7436 63.8462L36.7461 63.9156L63.5418 68.455L47.7436 63.8462Z" stroke="white" stroke-width="0.204111" stroke-linejoin="round"/>
<path d="M52.6871 68.7204L63.5418 68.455L36.7461 63.9156L52.6871 68.7204Z" stroke="white" stroke-width="0.204111" stroke-linejoin="round"/>
<path d="M36.7461 63.9156L47.7435 63.8462L21.7031 57.5964L36.7461 63.9156Z" stroke="white" stroke-width="0.204111" stroke-linejoin="round"/>
<path d="M67.9868 62.0011L58.1445 63.8626L83.4747 68.0958L67.9868 62.0011Z" stroke="white" stroke-width="0.204111" stroke-linejoin="round"/>
<path d="M83.4761 68.0958L73.7891 68.8388L99.8091 70.6064L83.4761 68.0958Z" stroke="white" stroke-width="0.204111" stroke-linejoin="round"/>
<path d="M73.7876 68.8388L83.4747 68.0958L58.1445 63.8626L73.7876 68.8388Z" stroke="white" stroke-width="0.204111" stroke-linejoin="round"/>
<path d="M92.6576 63.9524L83.4727 68.0958L108.664 66.7936L92.6576 63.9524Z" stroke="white" stroke-width="0.204111" stroke-linejoin="round"/>
<path d="M99.8056 70.6064L108.664 66.7936L83.4727 68.0958L99.8056 70.6064Z" stroke="white" stroke-width="0.204111" stroke-linejoin="round"/>
<path d="M83.4762 68.0958L92.6612 63.9524L67.9883 62.0011L83.4762 68.0958Z" stroke="white" stroke-width="0.204111" stroke-linejoin="round"/>
<path d="M108.667 66.7936L99.8086 70.6064L125.539 66.5527L108.667 66.7936Z" stroke="white" stroke-width="0.204111" stroke-linejoin="round"/>
<path d="M108.666 66.7936L117.264 59.217L92.6602 63.9524L108.666 66.7936Z" stroke="white" stroke-width="0.204111" stroke-linejoin="round"/>
<path d="M117.265 59.217L108.668 66.7936L133.594 59.6048L117.265 59.217Z" stroke="white" stroke-width="0.204111" stroke-linejoin="round"/>
<path d="M133.593 59.6048L125.539 66.5527L151.13 58.9435L133.593 59.6048Z" stroke="white" stroke-width="0.204111" stroke-linejoin="round"/>
<path d="M125.54 66.5527L133.594 59.6048L108.668 66.7936L125.54 66.5527Z" stroke="white" stroke-width="0.204111" stroke-linejoin="round"/>
<path d="M133.594 59.6048L141.673 49.8442L117.266 59.217L133.594 59.6048Z" stroke="white" stroke-width="0.204111" stroke-linejoin="round"/>
<path d="M73.7893 68.8388L63.543 68.4551L90.3467 71.2595L73.7893 68.8388Z" stroke="white" stroke-width="0.204111" stroke-linejoin="round"/>
<path d="M90.3514 71.2596L80.2969 71.3045L107.897 72.0882L90.3514 71.2596Z" stroke="white" stroke-width="0.204111" stroke-linejoin="round"/>
<path d="M80.2923 71.3045L90.3467 71.2595L63.543 68.4551L80.2923 71.3045Z" stroke="white" stroke-width="0.204111" stroke-linejoin="round"/>
<path d="M99.8063 70.6064L90.3438 71.2595L117.029 70.4472L99.8063 70.6064Z" stroke="white" stroke-width="0.204111" stroke-linejoin="round"/>
<path d="M107.889 72.0882L117.029 70.4472L90.3438 71.2595L107.889 72.0882Z" stroke="white" stroke-width="0.204111" stroke-linejoin="round"/>
<path d="M90.3465 71.2595L99.8091 70.6064L73.7891 68.8388L90.3465 71.2595Z" stroke="white" stroke-width="0.204111" stroke-linejoin="round"/>
<path d="M117.031 70.4472L107.891 72.0882L135.388 70.1982L117.031 70.4472Z" stroke="white" stroke-width="0.204111" stroke-linejoin="round"/>
<path d="M117.031 70.4472L125.539 66.5527L99.8086 70.6064L117.031 70.4472Z" stroke="white" stroke-width="0.204111" stroke-linejoin="round"/>
<path d="M125.543 66.5527L117.035 70.4472L143.537 65.7322L125.543 66.5527Z" stroke="white" stroke-width="0.204111" stroke-linejoin="round"/>
<path d="M135.393 70.1982L143.537 65.7322L117.035 70.4472L135.393 70.1982Z" stroke="white" stroke-width="0.204111" stroke-linejoin="round"/>
<path d="M143.533 65.7322L151.13 58.9435L125.539 66.5527L143.533 65.7322Z" stroke="white" stroke-width="0.204111" stroke-linejoin="round"/>
<path d="M-2.50445 62.3684L-15.7227 67.6794L12.7181 68.9694L-2.50445 62.3684Z" stroke="white" stroke-width="0.204111" stroke-linejoin="round"/>
<path d="M-0.434788 74.8192L12.7181 68.9694L-15.7227 67.6794L-0.434788 74.8192Z" stroke="white" stroke-width="0.204111" stroke-linejoin="round"/>
<path d="M12.7232 68.9694L-0.429688 74.8192L28.9214 75.4316L12.7232 68.9694Z" stroke="white" stroke-width="0.204111" stroke-linejoin="round"/>
<path d="M12.7226 68.9694L25.0958 65.3811L-2.5 62.3684L12.7226 68.9694Z" stroke="white" stroke-width="0.204111" stroke-linejoin="round"/>
<path d="M25.0919 65.3811L12.7188 68.9694L41.1677 70.8431L25.0919 65.3811Z" stroke="white" stroke-width="0.204111" stroke-linejoin="round"/>
<path d="M41.1687 70.8432L28.918 75.4316L58.2732 76.1541L41.1687 70.8432Z" stroke="white" stroke-width="0.204111" stroke-linejoin="round"/>
<path d="M28.9169 75.4316L41.1677 70.8432L12.7188 68.9694L28.9169 75.4316Z" stroke="white" stroke-width="0.204111" stroke-linejoin="round"/>
<path d="M52.688 68.7204L41.168 70.8432L69.621 72.574L52.688 68.7204Z" stroke="white" stroke-width="0.204111" stroke-linejoin="round"/>
<path d="M58.2725 76.1541L69.621 72.574L41.168 70.8432L58.2725 76.1541Z" stroke="white" stroke-width="0.204111" stroke-linejoin="round"/>
<path d="M41.1734 70.8431L52.6934 68.7204L25.0977 65.3811L41.1734 70.8431Z" stroke="white" stroke-width="0.204111" stroke-linejoin="round"/>
<path d="M69.6167 72.574L80.2875 71.3044L52.6836 68.7204L69.6167 72.574Z" stroke="white" stroke-width="0.204111" stroke-linejoin="round"/>
<path d="M-0.430732 74.8192L-14.4531 82.4856L15.8614 82.506L-0.430732 74.8192Z" stroke="white" stroke-width="0.204111" stroke-linejoin="round"/>
<path d="M69.622 72.574L58.2734 76.1541L87.6327 76.6195L69.622 72.574Z" stroke="white" stroke-width="0.204111" stroke-linejoin="round"/>
<path d="M76.5005 82.5673L87.6327 76.6195L58.2734 76.1541L76.5005 82.5673Z" stroke="white" stroke-width="0.204111" stroke-linejoin="round"/>
<path d="M15.8624 82.506L28.9214 75.4316L-0.429688 74.8192L15.8624 82.506Z" stroke="white" stroke-width="0.204111" stroke-linejoin="round"/>
<path d="M28.9145 75.4316L15.8555 82.506L46.1741 82.5387L28.9145 75.4316Z" stroke="white" stroke-width="0.204111" stroke-linejoin="round"/>
<path d="M58.2753 76.1541L46.1797 82.5387L76.5024 82.5673L58.2753 76.1541Z" stroke="white" stroke-width="0.204111" stroke-linejoin="round"/>
<path d="M46.1776 82.5387L58.2732 76.1541L28.918 75.4316L46.1776 82.5387Z" stroke="white" stroke-width="0.204111" stroke-linejoin="round"/>
<path d="M80.2959 71.3044L69.625 72.574L98.078 73.4353L80.2959 71.3044Z" stroke="white" stroke-width="0.204111" stroke-linejoin="round"/>
<path d="M98.0751 73.4353L87.6328 76.6195L117.008 76.6031L98.0751 73.4353Z" stroke="white" stroke-width="0.204111" stroke-linejoin="round"/>
<path d="M87.6357 76.6195L98.078 73.4353L69.625 72.574L87.6357 76.6195Z" stroke="white" stroke-width="0.204111" stroke-linejoin="round"/>
<path d="M107.892 72.0882L98.0742 73.4354L126.556 73.2721L107.892 72.0882Z" stroke="white" stroke-width="0.204111" stroke-linejoin="round"/>
<path d="M117.008 76.6031L126.556 73.272L98.0742 73.4353L117.008 76.6031Z" stroke="white" stroke-width="0.204111" stroke-linejoin="round"/>
<path d="M98.079 73.4353L107.897 72.0882L80.2969 71.3044L98.079 73.4353Z" stroke="white" stroke-width="0.204111" stroke-linejoin="round"/>
<path d="M126.556 73.272L117.008 76.6031L146.441 76.4847L126.556 73.272Z" stroke="white" stroke-width="0.204111" stroke-linejoin="round"/>
<path d="M126.554 73.2721L135.388 70.1982L107.891 72.0882L126.554 73.2721Z" stroke="white" stroke-width="0.204111" stroke-linejoin="round"/>
<path d="M135.389 70.1982L126.555 73.2721L154.991 71.5984L135.389 70.1982Z" stroke="white" stroke-width="0.204111" stroke-linejoin="round"/>
<path d="M146.439 76.4848L154.991 71.5983L126.555 73.2721L146.439 76.4848Z" stroke="white" stroke-width="0.204111" stroke-linejoin="round"/>
<path d="M87.6361 76.6195L76.5039 82.5673L106.831 82.5836L87.6361 76.6195Z" stroke="white" stroke-width="0.204111" stroke-linejoin="round"/>
<path d="M117.009 76.6032L106.828 82.5836L137.167 82.604L117.009 76.6032Z" stroke="white" stroke-width="0.204111" stroke-linejoin="round"/>
<path d="M106.827 82.5836L117.008 76.6032L87.6328 76.6195L106.827 82.5836Z" stroke="white" stroke-width="0.204111" stroke-linejoin="round"/>
<path d="M137.166 82.604L146.441 76.4848L117.008 76.6032L137.166 82.604Z" stroke="white" stroke-width="0.204111" stroke-linejoin="round"/>
</g>
</g>
<mask id="mask1_20225_42073" style="mask-type:alpha" maskUnits="userSpaceOnUse" x="179" y="70" width="61" height="36">
<path d="M230.818 84.4242C230.017 79.2968 225.572 75.3613 220.223 75.3613C218.21 75.3613 216.277 75.9181 214.6 76.9565C212.048 72.6684 207.455 70 202.352 70C194.468 70 188.055 76.4137 188.055 84.2969C188.055 84.3457 188.055 84.3964 188.056 84.4452C182.99 85.2986 179 89.7157 179 95.0195C179 100.932 183.929 105.742 189.842 105.742H229.158C235.071 105.742 240 100.932 240 95.0195C240 89.6705 235.945 85.2253 230.818 84.4242Z" fill="black"/>
</mask>
<g mask="url(#mask1_20225_42073)">
<g opacity="0.8" clip-path="url(#clip1_20225_42073)">
<path d="M177.132 69.4235L172.895 71.528L179.551 69.9777L177.132 69.4235Z" stroke="white" stroke-width="0.0936147" stroke-linejoin="round"/>
<path d="M183.625 67.6242L179.551 69.9777L186.138 68.2945L183.625 67.6242Z" stroke="white" stroke-width="0.0936147" stroke-linejoin="round"/>
<path d="M179.556 69.9777L183.63 67.6242L177.137 69.4235L179.556 69.9777Z" stroke="white" stroke-width="0.0936147" stroke-linejoin="round"/>
<path d="M175.514 72.1271L179.551 69.9777L172.895 71.528L175.514 72.1271Z" stroke="white" stroke-width="0.0936147" stroke-linejoin="round"/>
<path d="M179.552 69.9777L175.516 72.1271L181.924 70.4963L179.552 69.9777Z" stroke="white" stroke-width="0.0936147" stroke-linejoin="round"/>
<path d="M181.927 70.4963L177.832 72.3368L184.722 70.9401L181.927 70.4963Z" stroke="white" stroke-width="0.0936147" stroke-linejoin="round"/>
<path d="M177.83 72.3368L181.924 70.4963L175.516 72.1271L177.83 72.3368Z" stroke="white" stroke-width="0.0936147" stroke-linejoin="round"/>
<path d="M186.14 68.2945L181.926 70.4963L189.355 69.373L186.14 68.2945Z" stroke="white" stroke-width="0.0936147" stroke-linejoin="round"/>
<path d="M184.721 70.9401L189.355 69.373L181.926 70.4963L184.721 70.9401Z" stroke="white" stroke-width="0.0936147" stroke-linejoin="round"/>
<path d="M181.923 70.4963L186.138 68.2945L179.551 69.9777L181.923 70.4963Z" stroke="white" stroke-width="0.0936147" stroke-linejoin="round"/>
<path d="M189.353 69.373L184.719 70.9401L193.799 70.912L189.353 69.373Z" stroke="white" stroke-width="0.0936147" stroke-linejoin="round"/>
<path d="M188.935 71.6834L193.799 70.912L184.719 70.9401L188.935 71.6834Z" stroke="white" stroke-width="0.0936147" stroke-linejoin="round"/>
<path d="M177.83 72.3368L174.336 74.1941L180.818 72.4098L177.83 72.3368Z" stroke="white" stroke-width="0.0936147" stroke-linejoin="round"/>
<path d="M180.82 72.4098L178.41 74.7614L185.882 73.6399L180.82 72.4098Z" stroke="white" stroke-width="0.0936147" stroke-linejoin="round"/>
<path d="M188.937 71.6834L185.883 73.6399L195.387 73.8646L188.937 71.6834Z" stroke="white" stroke-width="0.0936147" stroke-linejoin="round"/>
<path d="M178.408 74.7614L180.818 72.4098L174.336 74.1941L178.408 74.7614Z" stroke="white" stroke-width="0.0936147" stroke-linejoin="round"/>
<path d="M184.722 70.9401L180.82 72.4098L188.939 71.6834L184.722 70.9401Z" stroke="white" stroke-width="0.0936147" stroke-linejoin="round"/>
<path d="M185.885 73.6399L188.939 71.6834L180.82 72.4098L185.885 73.6399Z" stroke="white" stroke-width="0.0936147" stroke-linejoin="round"/>
<path d="M180.82 72.4098L184.722 70.9401L177.832 72.3368L180.82 72.4098Z" stroke="white" stroke-width="0.0936147" stroke-linejoin="round"/>
<path d="M199.264 69.5677L193.801 70.912L205.4 72.7262L199.264 69.5677Z" stroke="white" stroke-width="0.0936147" stroke-linejoin="round"/>
<path d="M193.802 70.912L199.266 69.5677L189.355 69.373L193.802 70.912Z" stroke="white" stroke-width="0.0936147" stroke-linejoin="round"/>
<path d="M205.401 72.7262L207.893 69.4778L199.266 69.5677L205.401 72.7262Z" stroke="white" stroke-width="0.0936147" stroke-linejoin="round"/>
<path d="M207.89 69.4778L205.398 72.7262L212.45 69.3786L207.89 69.4778Z" stroke="white" stroke-width="0.0936147" stroke-linejoin="round"/>
<path d="M193.802 70.912L188.938 71.6834L200.227 73.1494L193.802 70.912Z" stroke="white" stroke-width="0.0936147" stroke-linejoin="round"/>
<path d="M200.227 73.1494L195.387 73.8646L207.162 75.7519L200.227 73.1494Z" stroke="white" stroke-width="0.0936147" stroke-linejoin="round"/>
<path d="M195.388 73.8646L200.227 73.1494L188.938 71.6834L195.388 73.8646Z" stroke="white" stroke-width="0.0936147" stroke-linejoin="round"/>
<path d="M205.4 72.7262L200.227 73.1494L210.15 73.2018L205.4 72.7262Z" stroke="white" stroke-width="0.0936147" stroke-linejoin="round"/>
<path d="M207.162 75.7519L210.15 73.2018L200.227 73.1494L207.162 75.7519Z" stroke="white" stroke-width="0.0936147" stroke-linejoin="round"/>
<path d="M200.227 73.1494L205.4 72.7262L193.801 70.912L200.227 73.1494Z" stroke="white" stroke-width="0.0936147" stroke-linejoin="round"/>
<path d="M210.148 73.2018L207.16 75.7519L215.123 71.3201L210.148 73.2018Z" stroke="white" stroke-width="0.0936147" stroke-linejoin="round"/>
<path d="M210.148 73.2018L212.45 69.3786L205.398 72.7262L210.148 73.2018Z" stroke="white" stroke-width="0.0936147" stroke-linejoin="round"/>
<path d="M212.449 69.3786L210.148 73.2018L217.711 65.8774L212.449 69.3786Z" stroke="white" stroke-width="0.0936147" stroke-linejoin="round"/>
<path d="M217.713 65.8774L215.125 71.3201L223.376 63.0727L217.713 65.8774Z" stroke="white" stroke-width="0.0936147" stroke-linejoin="round"/>
<path d="M215.123 71.3202L217.711 65.8774L210.148 73.2018L215.123 71.3202Z" stroke="white" stroke-width="0.0936147" stroke-linejoin="round"/>
<path d="M175.733 76.7348L172.574 78.2177L180.335 77.5605L175.733 76.7348Z" stroke="white" stroke-width="0.0936147" stroke-linejoin="round"/>
<path d="M178.406 74.7614L175.73 76.7348L183.143 75.7032L178.406 74.7614Z" stroke="white" stroke-width="0.0936147" stroke-linejoin="round"/>
<path d="M183.146 75.7032L180.336 77.5605L188.561 77.1991L183.146 75.7032Z" stroke="white" stroke-width="0.0936147" stroke-linejoin="round"/>
<path d="M180.333 77.5605L183.143 75.7032L175.73 76.7348L180.333 77.5605Z" stroke="white" stroke-width="0.0936147" stroke-linejoin="round"/>
<path d="M185.886 73.6399L183.148 75.7032L191.692 75.3849L185.886 73.6399Z" stroke="white" stroke-width="0.0936147" stroke-linejoin="round"/>
<path d="M188.563 77.1991L191.692 75.3849L183.148 75.7032L188.563 77.1991Z" stroke="white" stroke-width="0.0936147" stroke-linejoin="round"/>
<path d="M183.147 75.7032L185.882 73.6399L178.41 74.7614L183.147 75.7032Z" stroke="white" stroke-width="0.0936147" stroke-linejoin="round"/>
<path d="M191.689 75.3849L195.387 73.8646L185.883 73.6399L191.689 75.3849Z" stroke="white" stroke-width="0.0936147" stroke-linejoin="round"/>
<path d="M191.687 75.3849L188.559 77.1991L198.074 77.626L191.687 75.3849Z" stroke="white" stroke-width="0.0936147" stroke-linejoin="round"/>
<path d="M194.55 79.2437L198.074 77.626L188.559 77.1992L194.55 79.2437Z" stroke="white" stroke-width="0.0936147" stroke-linejoin="round"/>
<path d="M177.18 79.0827L173.516 80.3259L182.33 80.573L177.18 79.0827Z" stroke="white" stroke-width="0.0936147" stroke-linejoin="round"/>
<path d="M177.176 79.0827L180.335 77.5605L172.574 78.2177L177.176 79.0827Z" stroke="white" stroke-width="0.0936147" stroke-linejoin="round"/>
<path d="M180.334 77.5605L177.176 79.0827L185.551 78.976L180.334 77.5605Z" stroke="white" stroke-width="0.0936147" stroke-linejoin="round"/>
<path d="M185.552 78.976L182.328 80.573L191.339 80.9924L185.552 78.976Z" stroke="white" stroke-width="0.0936147" stroke-linejoin="round"/>
<path d="M194.553 79.2437L191.34 80.9924L200.907 81.6459L194.553 79.2437Z" stroke="white" stroke-width="0.0936147" stroke-linejoin="round"/>
<path d="M182.326 80.573L185.551 78.976L177.176 79.0827L182.326 80.573Z" stroke="white" stroke-width="0.0936147" stroke-linejoin="round"/>
<path d="M188.563 77.1992L185.555 78.976L194.555 79.2437L188.563 77.1992Z" stroke="white" stroke-width="0.0936147" stroke-linejoin="round"/>
<path d="M191.342 80.9924L194.555 79.2437L185.555 78.976L191.342 80.9924Z" stroke="white" stroke-width="0.0936147" stroke-linejoin="round"/>
<path d="M185.552 78.976L188.561 77.1992L180.336 77.5605L185.552 78.976Z" stroke="white" stroke-width="0.0936147" stroke-linejoin="round"/>
<path d="M195.389 73.8646L191.691 75.3849L202.425 76.4858L195.389 73.8646Z" stroke="white" stroke-width="0.0936147" stroke-linejoin="round"/>
<path d="M202.424 76.4858L198.078 77.626L209.05 78.9984L202.424 76.4858Z" stroke="white" stroke-width="0.0936147" stroke-linejoin="round"/>
<path d="M198.08 77.626L202.425 76.4858L191.691 75.3849L198.08 77.626Z" stroke="white" stroke-width="0.0936147" stroke-linejoin="round"/>
<path d="M207.161 75.7518L202.422 76.4858L212.244 76.0945L207.161 75.7518Z" stroke="white" stroke-width="0.0936147" stroke-linejoin="round"/>
<path d="M209.048 78.9984L212.244 76.0945L202.422 76.4858L209.048 78.9984Z" stroke="white" stroke-width="0.0936147" stroke-linejoin="round"/>
<path d="M202.423 76.4858L207.162 75.7519L195.387 73.8646L202.423 76.4858Z" stroke="white" stroke-width="0.0936147" stroke-linejoin="round"/>
<path d="M212.247 76.0945L209.051 78.9984L217.596 76.3211L212.247 76.0945Z" stroke="white" stroke-width="0.0936147" stroke-linejoin="round"/>
<path d="M212.243 76.0945L215.123 71.3201L207.16 75.7519L212.243 76.0945Z" stroke="white" stroke-width="0.0936147" stroke-linejoin="round"/>
<path d="M215.126 71.3202L212.246 76.0945L220.422 70.2118L215.126 71.3202Z" stroke="white" stroke-width="0.0936147" stroke-linejoin="round"/>
<path d="M220.421 70.2118L217.594 76.321L226.306 71.0337L220.421 70.2118Z" stroke="white" stroke-width="0.0936147" stroke-linejoin="round"/>
<path d="M217.595 76.321L220.422 70.2118L212.246 76.0945L217.595 76.321Z" stroke="white" stroke-width="0.0936147" stroke-linejoin="round"/>
<path d="M223.376 63.0727L220.422 70.2117L229.218 64.651L223.376 63.0727Z" stroke="white" stroke-width="0.0936147" stroke-linejoin="round"/>
<path d="M226.307 71.0337L229.218 64.651L220.422 70.2117L226.307 71.0337Z" stroke="white" stroke-width="0.0936147" stroke-linejoin="round"/>
<path d="M220.422 70.2117L223.376 63.0727L215.125 71.3201L220.422 70.2117Z" stroke="white" stroke-width="0.0936147" stroke-linejoin="round"/>
<path d="M198.08 77.626L194.555 79.2437L204.772 80.1555L198.08 77.626Z" stroke="white" stroke-width="0.0936147" stroke-linejoin="round"/>
<path d="M204.769 80.1555L200.906 81.6458L211.101 82.5595L204.769 80.1555Z" stroke="white" stroke-width="0.0936147" stroke-linejoin="round"/>
<path d="M200.909 81.6459L204.772 80.1555L194.555 79.2437L200.909 81.6459Z" stroke="white" stroke-width="0.0936147" stroke-linejoin="round"/>
<path d="M209.052 78.9984L204.773 80.1555L214.494 80.4289L209.052 78.9984Z" stroke="white" stroke-width="0.0936147" stroke-linejoin="round"/>
<path d="M211.104 82.5595L214.494 80.4288L204.773 80.1555L211.104 82.5595Z" stroke="white" stroke-width="0.0936147" stroke-linejoin="round"/>
<path d="M204.77 80.1555L209.05 78.9984L198.078 77.626L204.77 80.1555Z" stroke="white" stroke-width="0.0936147" stroke-linejoin="round"/>
<path d="M229.22 64.651L226.309 71.0337L234.751 69.3917L229.22 64.651Z" stroke="white" stroke-width="0.0936147" stroke-linejoin="round"/>
<path d="M232.463 74.2896L234.751 69.3917L226.309 71.0337L232.463 74.2896Z" stroke="white" stroke-width="0.0936147" stroke-linejoin="round"/>
<path d="M214.492 80.4289L211.102 82.5595L220.25 81.9173L214.492 80.4289Z" stroke="white" stroke-width="0.0936147" stroke-linejoin="round"/>
<path d="M214.494 80.4289L217.596 76.321L209.051 78.9984L214.494 80.4289Z" stroke="white" stroke-width="0.0936147" stroke-linejoin="round"/>
<path d="M217.595 76.321L214.492 80.4289L223.292 77.5811L217.595 76.321Z" stroke="white" stroke-width="0.0936147" stroke-linejoin="round"/>
<path d="M223.292 77.5811L220.25 81.9173L229.477 79.7436L223.292 77.5811Z" stroke="white" stroke-width="0.0936147" stroke-linejoin="round"/>
<path d="M220.249 81.9173L223.292 77.5811L214.492 80.4288L220.249 81.9173Z" stroke="white" stroke-width="0.0936147" stroke-linejoin="round"/>
<path d="M226.307 71.0337L223.293 77.5811L232.462 74.2896L226.307 71.0337Z" stroke="white" stroke-width="0.0936147" stroke-linejoin="round"/>
<path d="M229.477 79.7436L232.462 74.2896L223.293 77.5811L229.477 79.7436Z" stroke="white" stroke-width="0.0936147" stroke-linejoin="round"/>
<path d="M223.291 77.5811L226.306 71.0337L217.594 76.321L223.291 77.5811Z" stroke="white" stroke-width="0.0936147" stroke-linejoin="round"/>
<path d="M178.67 82.0315L174.371 83.3309L184.109 84.1603L178.67 82.0315Z" stroke="white" stroke-width="0.0936147" stroke-linejoin="round"/>
<path d="M178.676 82.0315L182.33 80.573L173.516 80.3259L178.676 82.0315Z" stroke="white" stroke-width="0.0936147" stroke-linejoin="round"/>
<path d="M182.331 80.573L178.676 82.0315L188.047 82.7187L182.331 80.573Z" stroke="white" stroke-width="0.0936147" stroke-linejoin="round"/>
<path d="M188.045 82.7187L184.113 84.1604L193.853 85.0871L188.045 82.7187Z" stroke="white" stroke-width="0.0936147" stroke-linejoin="round"/>
<path d="M184.115 84.1603L188.047 82.7187L178.676 82.0315L184.115 84.1603Z" stroke="white" stroke-width="0.0936147" stroke-linejoin="round"/>
<path d="M191.338 80.9924L188.043 82.7187L197.543 83.4376L191.338 80.9924Z" stroke="white" stroke-width="0.0936147" stroke-linejoin="round"/>
<path d="M193.851 85.0871L197.543 83.4376L188.043 82.7187L193.851 85.0871Z" stroke="white" stroke-width="0.0936147" stroke-linejoin="round"/>
<path d="M188.044 82.7187L191.339 80.9924L182.328 80.573L188.044 82.7187Z" stroke="white" stroke-width="0.0936147" stroke-linejoin="round"/>
<path d="M197.545 83.4376L200.907 81.6459L191.34 80.9924L197.545 83.4376Z" stroke="white" stroke-width="0.0936147" stroke-linejoin="round"/>
<path d="M174.373 83.3309L169.656 83.9862L179.624 84.8699L174.373 83.3309Z" stroke="white" stroke-width="0.0936147" stroke-linejoin="round"/>
<path d="M174.921 85.0122L179.624 84.8699L169.656 83.9862L174.921 85.0122Z" stroke="white" stroke-width="0.0936147" stroke-linejoin="round"/>
<path d="M197.544 83.4376L193.852 85.0871L203.591 85.7855L197.544 83.4376Z" stroke="white" stroke-width="0.0936147" stroke-linejoin="round"/>
<path d="M199.562 87.2702L203.591 85.7855L193.852 85.0871L199.562 87.2702Z" stroke="white" stroke-width="0.0936147" stroke-linejoin="round"/>
<path d="M179.623 84.8699L184.109 84.1603L174.371 83.3309L179.623 84.8699Z" stroke="white" stroke-width="0.0936147" stroke-linejoin="round"/>
<path d="M184.115 84.1603L179.629 84.8699L189.597 86.1131L184.115 84.1603Z" stroke="white" stroke-width="0.0936147" stroke-linejoin="round"/>
<path d="M185.133 86.5588L189.597 86.1131L179.629 84.8699L185.133 86.5588Z" stroke="white" stroke-width="0.0936147" stroke-linejoin="round"/>
<path d="M193.851 85.0871L189.594 86.1131L199.562 87.2702L193.851 85.0871Z" stroke="white" stroke-width="0.0936147" stroke-linejoin="round"/>
<path d="M195.34 88.2813L199.562 87.2702L189.594 86.1131L195.34 88.2813Z" stroke="white" stroke-width="0.0936147" stroke-linejoin="round"/>
<path d="M189.595 86.1131L193.853 85.0871L184.113 84.1603L189.595 86.1131Z" stroke="white" stroke-width="0.0936147" stroke-linejoin="round"/>
<path d="M200.906 81.6459L197.543 83.4376L207.286 84.0349L200.906 81.6459Z" stroke="white" stroke-width="0.0936147" stroke-linejoin="round"/>
<path d="M207.29 84.0349L203.594 85.7855L213.35 85.9409L207.29 84.0349Z" stroke="white" stroke-width="0.0936147" stroke-linejoin="round"/>
<path d="M203.59 85.7855L207.286 84.0349L197.543 83.4376L203.59 85.7855Z" stroke="white" stroke-width="0.0936147" stroke-linejoin="round"/>
<path d="M211.103 82.5595L207.289 84.0349L216.933 84.2371L211.103 82.5595Z" stroke="white" stroke-width="0.0936147" stroke-linejoin="round"/>
<path d="M213.35 85.9409L216.933 84.2371L207.289 84.0349L213.35 85.9409Z" stroke="white" stroke-width="0.0936147" stroke-linejoin="round"/>
<path d="M207.287 84.0349L211.101 82.5595L200.906 81.6459L207.287 84.0349Z" stroke="white" stroke-width="0.0936147" stroke-linejoin="round"/>
<path d="M216.931 84.2371L213.348 85.9409L223.17 85.2744L216.931 84.2371Z" stroke="white" stroke-width="0.0936147" stroke-linejoin="round"/>
<path d="M216.932 84.2371L220.25 81.9173L211.102 82.5595L216.932 84.2371Z" stroke="white" stroke-width="0.0936147" stroke-linejoin="round"/>
<path d="M220.247 81.9173L216.93 84.2371L226.39 83.4002L220.247 81.9173Z" stroke="white" stroke-width="0.0936147" stroke-linejoin="round"/>
<path d="M226.39 83.4002L223.168 85.2743L232.996 83.9712L226.39 83.4002Z" stroke="white" stroke-width="0.0936147" stroke-linejoin="round"/>
<path d="M223.168 85.2743L226.39 83.4002L216.93 84.2371L223.168 85.2743Z" stroke="white" stroke-width="0.0936147" stroke-linejoin="round"/>
<path d="M229.474 79.7436L226.391 83.4002L235.975 81.8893L229.474 79.7436Z" stroke="white" stroke-width="0.0936147" stroke-linejoin="round"/>
<path d="M232.996 83.9712L235.975 81.8893L226.391 83.4002L232.996 83.9712Z" stroke="white" stroke-width="0.0936147" stroke-linejoin="round"/>
<path d="M226.393 83.4002L229.477 79.7436L220.25 81.9173L226.393 83.4002Z" stroke="white" stroke-width="0.0936147" stroke-linejoin="round"/>
<path d="M232.461 74.2896L229.477 79.7436L238.696 78.2289L232.461 74.2896Z" stroke="white" stroke-width="0.0936147" stroke-linejoin="round"/>
<path d="M235.977 81.8893L238.696 78.2289L229.477 79.7436L235.977 81.8893Z" stroke="white" stroke-width="0.0936147" stroke-linejoin="round"/>
<path d="M203.592 85.7855L199.562 87.2702L209.534 87.8881L203.592 85.7855Z" stroke="white" stroke-width="0.0936147" stroke-linejoin="round"/>
<path d="M205.55 89.6031L209.534 87.8881L199.562 87.2702L205.55 89.6031Z" stroke="white" stroke-width="0.0936147" stroke-linejoin="round"/>
<path d="M213.349 85.9409L209.535 87.8881L219.653 87.5099L213.349 85.9409Z" stroke="white" stroke-width="0.0936147" stroke-linejoin="round"/>
<path d="M215.813 89.9307L219.653 87.5099L209.535 87.8881L215.813 89.9307Z" stroke="white" stroke-width="0.0936147" stroke-linejoin="round"/>
<path d="M209.536 87.8881L213.35 85.9409L203.594 85.7855L209.536 87.8881Z" stroke="white" stroke-width="0.0936147" stroke-linejoin="round"/>
<path d="M235.979 81.8893L233 83.9712L242.961 82.2712L235.979 81.8893Z" stroke="white" stroke-width="0.0936147" stroke-linejoin="round"/>
<path d="M240.083 83.8327L242.961 82.2712L233 83.9712L240.083 83.8327Z" stroke="white" stroke-width="0.0936147" stroke-linejoin="round"/>
<path d="M219.652 87.5099L223.17 85.2744L213.348 85.9409L219.652 87.5099Z" stroke="white" stroke-width="0.0936147" stroke-linejoin="round"/>
<path d="M223.166 85.2744L219.648 87.5099L229.822 86.0008L223.166 85.2744Z" stroke="white" stroke-width="0.0936147" stroke-linejoin="round"/>
<path d="M226.323 88.6239L229.822 86.0008L219.648 87.5099L226.323 88.6239Z" stroke="white" stroke-width="0.0936147" stroke-linejoin="round"/>
<path d="M233 83.9712L229.828 86.0008L240.083 83.8327L233 83.9712Z" stroke="white" stroke-width="0.0936147" stroke-linejoin="round"/>
<path d="M236.827 86.1787L240.083 83.8327L229.828 86.0008L236.827 86.1787Z" stroke="white" stroke-width="0.0936147" stroke-linejoin="round"/>
<path d="M229.824 86.0008L232.996 83.9712L223.168 85.2744L229.824 86.0008Z" stroke="white" stroke-width="0.0936147" stroke-linejoin="round"/>
<path d="M236.255 66.2537L234.746 69.3917L242.029 72.1327L236.255 66.2537Z" stroke="white" stroke-width="0.0936147" stroke-linejoin="round"/>
<path d="M237.286 65.224L236.258 66.2537L243.079 70.751L237.286 65.224Z" stroke="white" stroke-width="0.0936147" stroke-linejoin="round"/>
<path d="M242.032 72.1327L243.079 70.751L236.258 66.2537L242.032 72.1327Z" stroke="white" stroke-width="0.0936147" stroke-linejoin="round"/>
<path d="M243.078 70.751L244.681 69.6875L237.285 65.224L243.078 70.751Z" stroke="white" stroke-width="0.0936147" stroke-linejoin="round"/>
<path d="M234.749 69.3917L232.461 74.2896L240.707 74.6584L234.749 69.3917Z" stroke="white" stroke-width="0.0936147" stroke-linejoin="round"/>
<path d="M240.706 74.6584L238.695 78.2289L247.448 78.6502L240.706 74.6584Z" stroke="white" stroke-width="0.0936147" stroke-linejoin="round"/>
<path d="M238.696 78.2289L240.707 74.6585L232.461 74.2896L238.696 78.2289Z" stroke="white" stroke-width="0.0936147" stroke-linejoin="round"/>
<path d="M240.704 74.6584L242.029 72.1327L234.746 69.3917L240.704 74.6584Z" stroke="white" stroke-width="0.0936147" stroke-linejoin="round"/>
<path d="M238.695 78.2289L235.977 81.8893L245.478 80.8015L238.695 78.2289Z" stroke="white" stroke-width="0.0936147" stroke-linejoin="round"/>
<path d="M242.958 82.2693L245.478 80.8014L235.977 81.8892L242.958 82.2693Z" stroke="white" stroke-width="0.0936147" stroke-linejoin="round"/>
<path d="M245.479 80.8015L247.448 78.6502L238.695 78.2289L245.479 80.8015Z" stroke="white" stroke-width="0.0936147" stroke-linejoin="round"/>
<path d="M174.978 85.031L170.043 84.8456L180.507 86.5251L174.978 85.031Z" stroke="white" stroke-width="0.0936147" stroke-linejoin="round"/>
<path d="M175.587 86.2442L180.507 86.5251L170.043 84.8456L175.587 86.2442Z" stroke="white" stroke-width="0.0936147" stroke-linejoin="round"/>
<path d="M180.506 86.525L175.586 86.2442L186.318 88.7774L180.506 86.525Z" stroke="white" stroke-width="0.0936147" stroke-linejoin="round"/>
<path d="M180.505 86.5251L185.19 86.5887L174.977 85.031L180.505 86.5251Z" stroke="white" stroke-width="0.0936147" stroke-linejoin="round"/>
<path d="M185.196 86.5887L180.512 86.5251L190.978 88.7699L185.196 86.5887Z" stroke="white" stroke-width="0.0936147" stroke-linejoin="round"/>
<path d="M190.975 88.7699L186.32 88.7774L197.052 91.5615L190.975 88.7699Z" stroke="white" stroke-width="0.0936147" stroke-linejoin="round"/>
<path d="M186.323 88.7774L190.978 88.7699L180.512 86.5251L186.323 88.7774Z" stroke="white" stroke-width="0.0936147" stroke-linejoin="round"/>
<path d="M195.404 88.3224L190.973 88.7699L201.441 90.8744L195.404 88.3224Z" stroke="white" stroke-width="0.0936147" stroke-linejoin="round"/>
<path d="M197.05 91.5615L201.441 90.8744L190.973 88.7699L197.05 91.5615Z" stroke="white" stroke-width="0.0936147" stroke-linejoin="round"/>
<path d="M190.973 88.7699L195.405 88.3224L185.191 86.5887L190.973 88.7699Z" stroke="white" stroke-width="0.0936147" stroke-linejoin="round"/>
<path d="M201.443 90.8744L205.621 89.6499L195.406 88.3224L201.443 90.8744Z" stroke="white" stroke-width="0.0936147" stroke-linejoin="round"/>
<path d="M175.589 86.2442L170.414 86.2348L181.423 88.667L175.589 86.2442Z" stroke="white" stroke-width="0.0936147" stroke-linejoin="round"/>
<path d="M176.265 88.9721L181.423 88.667L170.414 86.2348L176.265 88.9721Z" stroke="white" stroke-width="0.0936147" stroke-linejoin="round"/>
<path d="M201.441 90.8744L197.051 91.5615L207.785 93.7652L201.441 90.8744Z" stroke="white" stroke-width="0.0936147" stroke-linejoin="round"/>
<path d="M203.445 94.8792L207.785 93.7652L197.051 91.5615L203.445 94.8792Z" stroke="white" stroke-width="0.0936147" stroke-linejoin="round"/>
<path d="M181.424 88.667L176.266 88.9721L187.571 92.1588L181.424 88.667Z" stroke="white" stroke-width="0.0936147" stroke-linejoin="round"/>
<path d="M181.42 88.6669L186.318 88.7774L175.586 86.2442L181.42 88.6669Z" stroke="white" stroke-width="0.0936147" stroke-linejoin="round"/>
<path d="M186.324 88.7774L181.426 88.667L192.437 91.8667L186.324 88.7774Z" stroke="white" stroke-width="0.0936147" stroke-linejoin="round"/>
<path d="M192.431 91.8667L187.566 92.1588L198.871 95.6749L192.431 91.8667Z" stroke="white" stroke-width="0.0936147" stroke-linejoin="round"/>
<path d="M203.447 94.8792L198.875 95.6749L210.184 98.4366L203.447 94.8792Z" stroke="white" stroke-width="0.0936147" stroke-linejoin="round"/>
<path d="M187.573 92.1588L192.437 91.8667L181.426 88.667L187.573 92.1588Z" stroke="white" stroke-width="0.0936147" stroke-linejoin="round"/>
<path d="M197.053 91.5615L192.434 91.8667L203.446 94.8792L197.053 91.5615Z" stroke="white" stroke-width="0.0936147" stroke-linejoin="round"/>
<path d="M198.874 95.6749L203.446 94.8792L192.434 91.8667L198.874 95.6749Z" stroke="white" stroke-width="0.0936147" stroke-linejoin="round"/>
<path d="M192.433 91.8667L197.052 91.5615L186.32 88.7774L192.433 91.8667Z" stroke="white" stroke-width="0.0936147" stroke-linejoin="round"/>
<path d="M205.624 89.6499L201.445 90.8744L211.913 92.1344L205.624 89.6499Z" stroke="white" stroke-width="0.0936147" stroke-linejoin="round"/>
<path d="M211.91 92.1344L207.785 93.7652L218.573 94.4935L211.91 92.1344Z" stroke="white" stroke-width="0.0936147" stroke-linejoin="round"/>
<path d="M207.789 93.7652L211.913 92.1344L201.445 90.8744L207.789 93.7652Z" stroke="white" stroke-width="0.0936147" stroke-linejoin="round"/>
<path d="M215.891 89.9738L211.91 92.1345L222.614 91.6083L215.891 89.9738Z" stroke="white" stroke-width="0.0936147" stroke-linejoin="round"/>
<path d="M218.574 94.4935L222.614 91.6083L211.91 92.1344L218.574 94.4935Z" stroke="white" stroke-width="0.0936147" stroke-linejoin="round"/>
<path d="M211.91 92.1344L215.891 89.9738L205.621 89.6499L211.91 92.1344Z" stroke="white" stroke-width="0.0936147" stroke-linejoin="round"/>
<path d="M222.615 91.6083L218.574 94.4935L229.606 92.6325L222.615 91.6083Z" stroke="white" stroke-width="0.0936147" stroke-linejoin="round"/>
<path d="M222.614 91.6083L226.411 88.652L215.891 89.9738L222.614 91.6083Z" stroke="white" stroke-width="0.0936147" stroke-linejoin="round"/>
<path d="M226.41 88.652L222.613 91.6083L233.388 89.1856L226.41 88.652Z" stroke="white" stroke-width="0.0936147" stroke-linejoin="round"/>
<path d="M233.389 89.1856L229.605 92.6325L240.583 89.1406L233.389 89.1856Z" stroke="white" stroke-width="0.0936147" stroke-linejoin="round"/>
<path d="M229.604 92.6325L233.39 89.1856L222.613 91.6083L229.604 92.6325Z" stroke="white" stroke-width="0.0936147" stroke-linejoin="round"/>
<path d="M236.918 86.1918L233.395 89.1856L244.203 85.808L236.918 86.1918Z" stroke="white" stroke-width="0.0936147" stroke-linejoin="round"/>
<path d="M240.586 89.1406L244.203 85.808L233.395 89.1856L240.586 89.1406Z" stroke="white" stroke-width="0.0936147" stroke-linejoin="round"/>
<path d="M233.392 89.1856L236.918 86.1918L226.414 88.652L233.392 89.1856Z" stroke="white" stroke-width="0.0936147" stroke-linejoin="round"/>
<path d="M244.199 85.808L247.556 83.2298L236.914 86.1918L244.199 85.808Z" stroke="white" stroke-width="0.0936147" stroke-linejoin="round"/>
<path d="M207.785 93.7652L203.445 94.8792L214.458 96.744L207.785 93.7652Z" stroke="white" stroke-width="0.0936147" stroke-linejoin="round"/>
<path d="M214.46 96.744L210.184 98.4366L221.5 99.3315L214.46 96.744Z" stroke="white" stroke-width="0.0936147" stroke-linejoin="round"/>
<path d="M210.182 98.4366L214.458 96.744L203.445 94.8792L210.182 98.4366Z" stroke="white" stroke-width="0.0936147" stroke-linejoin="round"/>
<path d="M218.574 94.4935L214.461 96.744L225.616 96.1786L218.574 94.4935Z" stroke="white" stroke-width="0.0936147" stroke-linejoin="round"/>
<path d="M221.499 99.3315L225.616 96.1786L214.461 96.744L221.499 99.3315Z" stroke="white" stroke-width="0.0936147" stroke-linejoin="round"/>
<path d="M214.458 96.744L218.573 94.4935L207.785 93.7652L214.458 96.744Z" stroke="white" stroke-width="0.0936147" stroke-linejoin="round"/>
<path d="M225.617 96.1786L221.5 99.3315L232.784 97.1597L225.617 96.1786Z" stroke="white" stroke-width="0.0936147" stroke-linejoin="round"/>
<path d="M225.616 96.1786L229.606 92.6325L218.574 94.4935L225.616 96.1786Z" stroke="white" stroke-width="0.0936147" stroke-linejoin="round"/>
<path d="M229.607 92.6325L225.617 96.1786L236.769 93.02L229.607 92.6325Z" stroke="white" stroke-width="0.0936147" stroke-linejoin="round"/>
<path d="M236.769 93.02L232.785 97.1597L243.98 92.8609L236.769 93.02Z" stroke="white" stroke-width="0.0936147" stroke-linejoin="round"/>
<path d="M232.784 97.1597L236.769 93.02L225.617 96.1786L232.784 97.1597Z" stroke="white" stroke-width="0.0936147" stroke-linejoin="round"/>
<path d="M240.585 89.1406L236.77 93.02L247.88 88.6333L240.585 89.1406Z" stroke="white" stroke-width="0.0936147" stroke-linejoin="round"/>
<path d="M243.98 92.8609L247.88 88.6333L236.77 93.02L243.98 92.8609Z" stroke="white" stroke-width="0.0936147" stroke-linejoin="round"/>
<path d="M236.767 93.02L240.583 89.1406L229.605 92.6325L236.767 93.02Z" stroke="white" stroke-width="0.0936147" stroke-linejoin="round"/>
<path d="M176.267 88.9721L170.824 90.3108L182.438 92.8365L176.267 88.9721Z" stroke="white" stroke-width="0.0936147" stroke-linejoin="round"/>
<path d="M177.016 93.8008L182.438 92.8366L170.824 90.3108L177.016 93.8008Z" stroke="white" stroke-width="0.0936147" stroke-linejoin="round"/>
<path d="M182.434 92.8365L177.012 93.8008L188.953 96.4164L182.434 92.8365Z" stroke="white" stroke-width="0.0936147" stroke-linejoin="round"/>
<path d="M182.437 92.8365L187.571 92.1588L176.266 88.9721L182.437 92.8365Z" stroke="white" stroke-width="0.0936147" stroke-linejoin="round"/>
<path d="M187.567 92.1588L182.434 92.8366L194.049 96.1617L187.567 92.1588Z" stroke="white" stroke-width="0.0936147" stroke-linejoin="round"/>
<path d="M194.05 96.1617L188.953 96.4164L200.896 99.2829L194.05 96.1617Z" stroke="white" stroke-width="0.0936147" stroke-linejoin="round"/>
<path d="M188.953 96.4164L194.049 96.1617L182.434 92.8365L188.953 96.4164Z" stroke="white" stroke-width="0.0936147" stroke-linejoin="round"/>
<path d="M198.874 95.6749L194.051 96.1617L205.668 99.2903L198.874 95.6749Z" stroke="white" stroke-width="0.0936147" stroke-linejoin="round"/>
<path d="M200.898 99.2829L205.668 99.2903L194.051 96.1617L200.898 99.2829Z" stroke="white" stroke-width="0.0936147" stroke-linejoin="round"/>
<path d="M194.048 96.1617L198.871 95.6749L187.566 92.1588L194.048 96.1617Z" stroke="white" stroke-width="0.0936147" stroke-linejoin="round"/>
<path d="M205.67 99.2903L210.184 98.4366L198.875 95.6749L205.67 99.2903Z" stroke="white" stroke-width="0.0936147" stroke-linejoin="round"/>
<path d="M177.01 93.8008L171.273 95.4259L183.561 97.1016L177.01 93.8008Z" stroke="white" stroke-width="0.0936147" stroke-linejoin="round"/>
<path d="M177.849 98.6051L183.561 97.1035L171.273 95.4259L177.849 98.6051Z" stroke="white" stroke-width="0.0936147" stroke-linejoin="round"/>
<path d="M205.669 99.2903L200.898 99.2829L212.844 101.573L205.669 99.2903Z" stroke="white" stroke-width="0.0936147" stroke-linejoin="round"/>
<path d="M208.144 101.397L212.844 101.573L200.898 99.2829L208.144 101.397Z" stroke="white" stroke-width="0.0936147" stroke-linejoin="round"/>
<path d="M183.564 97.1016L177.852 98.6051L190.508 99.9868L183.564 97.1016Z" stroke="white" stroke-width="0.0936147" stroke-linejoin="round"/>
<path d="M183.563 97.1016L188.953 96.4164L177.012 93.8008L183.563 97.1016Z" stroke="white" stroke-width="0.0936147" stroke-linejoin="round"/>
<path d="M188.957 96.4164L183.566 97.1016L195.856 99.3147L188.957 96.4164Z" stroke="white" stroke-width="0.0936147" stroke-linejoin="round"/>
<path d="M195.857 99.3147L190.512 99.9868L203.168 101.518L195.857 99.3147Z" stroke="white" stroke-width="0.0936147" stroke-linejoin="round"/>
<path d="M208.143 101.397L203.164 101.518L215.825 102.704L208.143 101.397Z" stroke="white" stroke-width="0.0936147" stroke-linejoin="round"/>
<path d="M190.511 99.9868L195.856 99.3147L183.566 97.1035L190.511 99.9868Z" stroke="white" stroke-width="0.0936147" stroke-linejoin="round"/>
<path d="M200.896 99.2829L195.852 99.3147L208.141 101.397L200.896 99.2829Z" stroke="white" stroke-width="0.0936147" stroke-linejoin="round"/>
<path d="M203.163 101.518L208.141 101.397L195.852 99.3147L203.163 101.518Z" stroke="white" stroke-width="0.0936147" stroke-linejoin="round"/>
<path d="M195.853 99.3147L200.896 99.2829L188.953 96.4164L195.853 99.3147Z" stroke="white" stroke-width="0.0936147" stroke-linejoin="round"/>
<path d="M210.182 98.4366L205.668 99.2903L217.286 101.232L210.182 98.4366Z" stroke="white" stroke-width="0.0936147" stroke-linejoin="round"/>
<path d="M217.287 101.232L212.844 101.573L224.778 102.383L217.287 101.232Z" stroke="white" stroke-width="0.0936147" stroke-linejoin="round"/>
<path d="M212.843 101.573L217.286 101.232L205.668 99.2903L212.843 101.573Z" stroke="white" stroke-width="0.0936147" stroke-linejoin="round"/>
<path d="M221.498 99.3315L217.285 101.232L228.839 100.635L221.498 99.3315Z" stroke="white" stroke-width="0.0936147" stroke-linejoin="round"/>
<path d="M224.776 102.383L228.839 100.635L217.285 101.232L224.776 102.383Z" stroke="white" stroke-width="0.0936147" stroke-linejoin="round"/>
<path d="M217.287 101.232L221.5 99.3315L210.184 98.4366L217.287 101.232Z" stroke="white" stroke-width="0.0936147" stroke-linejoin="round"/>
<path d="M228.84 100.635L224.777 102.383L236.578 100.524L228.84 100.635Z" stroke="white" stroke-width="0.0936147" stroke-linejoin="round"/>
<path d="M228.841 100.635L232.784 97.1597L221.5 99.3315L228.841 100.635Z" stroke="white" stroke-width="0.0936147" stroke-linejoin="round"/>
<path d="M232.783 97.1597L228.84 100.635L240.272 97.3376L232.783 97.1597Z" stroke="white" stroke-width="0.0936147" stroke-linejoin="round"/>
<path d="M240.272 97.3375L236.578 100.524L248.316 97.0342L240.272 97.3375Z" stroke="white" stroke-width="0.0936147" stroke-linejoin="round"/>
<path d="M236.578 100.524L240.272 97.3376L228.84 100.635L236.578 100.524Z" stroke="white" stroke-width="0.0936147" stroke-linejoin="round"/>
<path d="M240.274 97.3375L243.98 92.8609L232.785 97.1597L240.274 97.3375Z" stroke="white" stroke-width="0.0936147" stroke-linejoin="round"/>
<path d="M212.844 101.573L208.145 101.397L220.438 102.683L212.844 101.573Z" stroke="white" stroke-width="0.0936147" stroke-linejoin="round"/>
<path d="M220.44 102.683L215.828 102.704L228.487 103.063L220.44 102.683Z" stroke="white" stroke-width="0.0936147" stroke-linejoin="round"/>
<path d="M215.827 102.704L220.438 102.683L208.145 101.397L215.827 102.704Z" stroke="white" stroke-width="0.0936147" stroke-linejoin="round"/>
<path d="M224.777 102.383L220.438 102.683L232.677 102.31L224.777 102.383Z" stroke="white" stroke-width="0.0936147" stroke-linejoin="round"/>
<path d="M228.485 103.063L232.677 102.31L220.438 102.683L228.485 103.063Z" stroke="white" stroke-width="0.0936147" stroke-linejoin="round"/>
<path d="M220.438 102.683L224.778 102.383L212.844 101.573L220.438 102.683Z" stroke="white" stroke-width="0.0936147" stroke-linejoin="round"/>
<path d="M232.676 102.31L228.484 103.063L241.096 102.196L232.676 102.31Z" stroke="white" stroke-width="0.0936147" stroke-linejoin="round"/>
<path d="M232.677 102.31L236.578 100.524L224.777 102.383L232.677 102.31Z" stroke="white" stroke-width="0.0936147" stroke-linejoin="round"/>
<path d="M236.582 100.524L232.68 102.31L244.835 100.148L236.582 100.524Z" stroke="white" stroke-width="0.0936147" stroke-linejoin="round"/>
<path d="M241.099 102.196L244.835 100.148L232.68 102.31L241.099 102.196Z" stroke="white" stroke-width="0.0936147" stroke-linejoin="round"/>
<path d="M244.831 100.148L248.316 97.0342L236.578 100.524L244.831 100.148Z" stroke="white" stroke-width="0.0936147" stroke-linejoin="round"/>
<path d="M177.852 98.6051L171.789 101.041L184.833 101.633L177.852 98.6051Z" stroke="white" stroke-width="0.0936147" stroke-linejoin="round"/>
<path d="M178.801 104.316L184.833 101.633L171.789 101.041L178.801 104.316Z" stroke="white" stroke-width="0.0936147" stroke-linejoin="round"/>
<path d="M184.837 101.633L178.805 104.316L192.266 104.596L184.837 101.633Z" stroke="white" stroke-width="0.0936147" stroke-linejoin="round"/>
<path d="M184.833 101.633L190.508 99.9868L177.852 98.6051L184.833 101.633Z" stroke="white" stroke-width="0.0936147" stroke-linejoin="round"/>
<path d="M190.507 99.9868L184.832 101.633L197.88 102.492L190.507 99.9868Z" stroke="white" stroke-width="0.0936147" stroke-linejoin="round"/>
<path d="M197.88 102.492L192.262 104.596L205.725 104.928L197.88 102.492Z" stroke="white" stroke-width="0.0936147" stroke-linejoin="round"/>
<path d="M192.261 104.596L197.88 102.492L184.832 101.633L192.261 104.596Z" stroke="white" stroke-width="0.0936147" stroke-linejoin="round"/>
<path d="M203.166 101.518L197.883 102.492L210.933 103.286L203.166 101.518Z" stroke="white" stroke-width="0.0936147" stroke-linejoin="round"/>
<path d="M205.728 104.928L210.933 103.286L197.883 102.492L205.728 104.928Z" stroke="white" stroke-width="0.0936147" stroke-linejoin="round"/>
<path d="M197.885 102.492L203.168 101.518L190.512 99.9868L197.885 102.492Z" stroke="white" stroke-width="0.0936147" stroke-linejoin="round"/>
<path d="M210.93 103.286L215.825 102.704L203.164 101.518L210.93 103.286Z" stroke="white" stroke-width="0.0936147" stroke-linejoin="round"/>
<path d="M178.802 104.316L172.371 107.832L186.275 107.841L178.802 104.316Z" stroke="white" stroke-width="0.0936147" stroke-linejoin="round"/>
<path d="M210.932 103.286L205.727 104.928L219.192 105.141L210.932 103.286Z" stroke="white" stroke-width="0.0936147" stroke-linejoin="round"/>
<path d="M214.086 107.869L219.192 105.141L205.727 104.928L214.086 107.869Z" stroke="white" stroke-width="0.0936147" stroke-linejoin="round"/>
<path d="M186.277 107.841L192.266 104.596L178.805 104.316L186.277 107.841Z" stroke="white" stroke-width="0.0936147" stroke-linejoin="round"/>
<path d="M192.263 104.596L186.273 107.841L200.179 107.856L192.263 104.596Z" stroke="white" stroke-width="0.0936147" stroke-linejoin="round"/>
<path d="M205.727 104.928L200.18 107.856L214.087 107.869L205.727 104.928Z" stroke="white" stroke-width="0.0936147" stroke-linejoin="round"/>
<path d="M200.178 107.856L205.725 104.928L192.262 104.596L200.178 107.856Z" stroke="white" stroke-width="0.0936147" stroke-linejoin="round"/>
<path d="M215.828 102.704L210.934 103.286L223.983 103.681L215.828 102.704Z" stroke="white" stroke-width="0.0936147" stroke-linejoin="round"/>
<path d="M223.981 103.681L219.191 105.141L232.664 105.134L223.981 103.681Z" stroke="white" stroke-width="0.0936147" stroke-linejoin="round"/>
<path d="M219.194 105.141L223.983 103.681L210.934 103.286L219.194 105.141Z" stroke="white" stroke-width="0.0936147" stroke-linejoin="round"/>
<path d="M228.483 103.063L223.98 103.681L237.043 103.606L228.483 103.063Z" stroke="white" stroke-width="0.0936147" stroke-linejoin="round"/>
<path d="M232.664 105.134L237.043 103.606L223.98 103.681L232.664 105.134Z" stroke="white" stroke-width="0.0936147" stroke-linejoin="round"/>
<path d="M223.984 103.681L228.487 103.063L215.828 102.704L223.984 103.681Z" stroke="white" stroke-width="0.0936147" stroke-linejoin="round"/>
<path d="M237.043 103.606L232.664 105.134L246.163 105.079L237.043 103.606Z" stroke="white" stroke-width="0.0936147" stroke-linejoin="round"/>
<path d="M237.044 103.606L241.096 102.196L228.484 103.063L237.044 103.606Z" stroke="white" stroke-width="0.0936147" stroke-linejoin="round"/>
<path d="M241.095 102.196L237.043 103.606L250.085 102.838L241.095 102.196Z" stroke="white" stroke-width="0.0936147" stroke-linejoin="round"/>
<path d="M246.163 105.079L250.085 102.838L237.043 103.606L246.163 105.079Z" stroke="white" stroke-width="0.0936147" stroke-linejoin="round"/>
<path d="M219.196 105.141L214.09 107.869L227.999 107.877L219.196 105.141Z" stroke="white" stroke-width="0.0936147" stroke-linejoin="round"/>
<path d="M232.666 105.134L227.996 107.877L241.911 107.886L232.666 105.134Z" stroke="white" stroke-width="0.0936147" stroke-linejoin="round"/>
<path d="M227.995 107.877L232.664 105.134L219.191 105.141L227.995 107.877Z" stroke="white" stroke-width="0.0936147" stroke-linejoin="round"/>
<path d="M241.909 107.886L246.163 105.079L232.664 105.134L241.909 107.886Z" stroke="white" stroke-width="0.0936147" stroke-linejoin="round"/>
</g>
</g>
<defs>
<clipPath id="clip0_20225_42073">
<rect width="909.742" height="182.875" fill="white" transform="translate(-498.75 -100.01)"/>
</clipPath>
<clipPath id="clip1_20225_42073">
<rect width="417.25" height="83.875" fill="white" transform="translate(-49.75 24.1309)"/>
</clipPath>
</defs>
</svg>
