<svg width="220" height="27" viewBox="0 0 220 27" fill="none" xmlns="http://www.w3.org/2000/svg">
<path d="M28.2175 26.6615H23.0379L14.0695 6.1848L5.10109 26.6615H0L11.9033 0.280029H16.2755L28.2175 26.6615Z" fill="white"/>
<path d="M65.101 20.3502L65.0942 20.357C63.9013 22.3645 62.1575 23.9845 60.0715 25.0233C57.8805 26.1005 55.4736 26.6619 53.0339 26.6647H41.5491V22.2495H52.5199C54.2821 22.2895 56.0283 21.9076 57.6142 21.1355C58.965 20.4487 60.0889 19.3843 60.8504 18.0707C61.6199 16.6543 62.0226 15.0665 62.0214 13.4532C62.0202 11.8398 61.6152 10.2526 60.8436 8.83739C60.0711 7.54252 58.9491 6.49376 57.6074 5.81252C56.0284 5.04041 54.2884 4.65844 52.5325 4.69846H41.5513V0.283291H52.7315C55.2735 0.23581 57.79 0.798567 60.0715 1.92471C62.1392 2.95846 63.8719 4.56044 65.068 6.5442L65.101 6.59671C66.2666 8.69984 66.8783 11.0667 66.8783 13.4734C66.8783 15.8801 66.2666 18.247 65.101 20.3502Z" fill="white"/>
<path d="M103.858 20.3502L103.852 20.3571C102.657 22.3631 100.914 23.9827 98.829 25.0233C96.6384 26.0995 94.2325 26.6608 91.7937 26.6648H80.3088V22.2496H91.2797C93.0422 22.2928 94.7892 21.9108 96.374 21.1355C97.7236 20.4471 98.8471 19.3831 99.6102 18.0707C100.38 16.6543 100.783 15.066 100.78 13.4523C100.778 11.8387 100.371 10.2516 99.5966 8.83744C98.8241 7.54256 97.702 6.4938 96.3603 5.81257C94.7837 5.04052 93.046 4.65852 91.2922 4.6985H80.3088V0.283337H91.4889C94.0316 0.235367 96.5487 0.800204 98.829 1.93046C100.893 2.96156 102.623 4.559 103.819 6.5374L103.858 6.59675C105.021 8.70091 105.631 11.0674 105.631 13.4735C105.631 15.8795 105.021 18.246 103.858 20.3502Z" fill="white"/>
<path d="M147.202 26.6614H142.036L141.859 26.279L133.064 6.18015L124.099 26.6614H118.998L130.904 0.282227H135.269L135.354 0.47285L147.202 26.6614Z" fill="white"/>
<path d="M184.725 22.3409L184.311 22.7975C183.1 24.1606 181.593 25.225 179.905 25.9079C178.181 26.6031 176.34 26.9588 174.483 26.9558H174.128C172.305 26.9566 170.498 26.6191 168.797 25.9605C167.152 25.3337 165.654 24.3709 164.399 23.1331C163.154 21.9165 162.165 20.4622 161.49 18.856C160.071 15.4168 160.071 11.5529 161.49 8.11373C162.183 6.49864 163.189 5.03783 164.449 3.81608C165.709 2.59434 167.198 1.63601 168.83 0.996721C172.401 -0.343548 176.336 -0.33178 179.899 1.02982C181.591 1.70359 183.104 2.76431 184.317 4.12775L184.718 4.59575L181.487 7.74618L181.032 7.26562C180.2 6.36376 179.183 5.65347 178.052 5.1836C176.923 4.71082 175.71 4.47764 174.487 4.49872C173.225 4.4782 171.971 4.70663 170.797 5.17104C169.713 5.59071 168.724 6.225 167.888 7.03619C167.066 7.8402 166.42 8.80741 165.991 9.87614C165.064 12.1941 165.064 14.7813 165.991 17.0993C166.42 18.168 167.066 19.1352 167.888 19.9393C168.723 20.7518 169.712 21.3863 170.797 21.8044C173.129 22.7142 175.718 22.7072 178.045 21.785C179.178 21.309 180.193 20.5889 181.019 19.6756L181.473 19.1745L184.725 22.3409Z" fill="white"/>
<path d="M220 0.282227V4.69739H211.426V26.6614H206.6V4.69739H198.033V0.282227H220Z" fill="white"/>
</svg>
