<svg preserveAspectRatio="none" width="100%" height="100%" overflow="visible" style="display: block;" viewBox="0 0 388 468" fill="none" xmlns="http://www.w3.org/2000/svg">
<path id="Vector" d="M148.874 90.8486L162.262 128.122C169.608 148.556 181.36 167.113 196.681 182.472C212.001 197.83 230.512 209.612 250.895 216.976L288.075 230.398C288.809 230.668 289.443 231.157 289.891 231.8C290.338 232.443 290.578 233.208 290.578 233.992C290.578 234.776 290.338 235.541 289.891 236.183C289.443 236.826 288.809 237.315 288.075 237.585L250.895 251.007C230.512 258.372 212.001 270.153 196.681 285.512C181.36 300.87 169.608 319.428 162.262 339.861L148.874 377.135C148.605 377.871 148.116 378.506 147.475 378.955C146.834 379.404 146.071 379.645 145.289 379.645C144.507 379.645 143.744 379.404 143.103 378.955C142.462 378.506 141.974 377.871 141.705 377.135L128.316 339.861C120.97 319.428 109.218 300.87 93.8978 285.512C78.5776 270.153 60.0665 258.372 39.6838 251.007L2.50356 237.585C1.76939 237.315 1.1356 236.826 0.687851 236.183C0.240105 235.541 0 234.776 0 233.992C0 233.208 0.240105 232.443 0.687851 231.8C1.1356 231.157 1.76939 230.668 2.50356 230.398L39.6838 216.976C60.0665 209.612 78.5776 197.83 93.8978 182.472C109.218 167.113 120.97 148.556 128.316 128.122L141.705 90.8486C141.966 90.1051 142.452 89.4614 143.094 89.006C143.736 88.5507 144.503 88.3061 145.289 88.3061C146.076 88.3061 146.843 88.5507 147.485 89.006C148.127 89.4614 148.612 90.1051 148.874 90.8486ZM316.235 1.27555L323.021 20.1462C326.744 30.492 332.696 39.8879 340.454 47.665C348.212 55.4421 357.584 61.4092 367.904 65.1417L386.728 71.9445C387.101 72.0806 387.423 72.3284 387.65 72.6544C387.878 72.9803 388 73.3685 388 73.7664C388 74.1642 387.878 74.5525 387.65 74.8784C387.423 75.2043 387.101 75.4521 386.728 75.5882L367.904 82.3911C357.584 86.1235 348.212 92.0907 340.454 99.8678C332.696 107.645 326.744 117.041 323.021 127.387L316.235 146.257C316.099 146.631 315.852 146.954 315.527 147.182C315.202 147.41 314.815 147.533 314.418 147.533C314.021 147.533 313.634 147.41 313.309 147.182C312.984 146.954 312.736 146.631 312.601 146.257L305.815 127.387C302.092 117.041 296.139 107.645 288.382 99.8678C280.624 92.0907 271.252 86.1235 260.932 82.3911L242.108 75.5882C241.735 75.4521 241.413 75.2043 241.185 74.8784C240.958 74.5525 240.836 74.1642 240.836 73.7664C240.836 73.3685 240.958 72.9803 241.185 72.6544C241.413 72.3284 241.735 72.0806 242.108 71.9445L260.932 65.1417C271.252 61.4092 280.624 55.4421 288.382 47.665C296.139 39.8879 302.092 30.492 305.815 20.1462L312.601 1.27555C312.736 0.901695 312.984 0.57877 313.309 0.350585C313.634 0.122399 314.021 0 314.418 0C314.815 0 315.202 0.122399 315.527 0.350585C315.852 0.57877 316.099 0.901695 316.235 1.27555ZM316.235 321.743L323.021 340.613C326.744 350.959 332.696 360.355 340.454 368.132C348.212 375.909 357.584 381.876 367.904 385.609L386.728 392.412C387.101 392.548 387.423 392.796 387.65 393.122C387.878 393.448 388 393.836 388 394.234C388 394.631 387.878 395.02 387.65 395.346C387.423 395.672 387.101 395.919 386.728 396.055L367.904 402.858C357.584 406.591 348.212 412.558 340.454 420.335C332.696 428.112 326.744 437.508 323.021 447.854L316.235 466.724C316.099 467.098 315.852 467.421 315.527 467.649C315.202 467.878 314.815 468 314.418 468C314.021 468 313.634 467.878 313.309 467.649C312.984 467.421 312.736 467.098 312.601 466.724L305.815 447.854C302.092 437.508 296.139 428.112 288.382 420.335C280.624 412.558 271.252 406.591 260.932 402.858L242.108 396.055C241.735 395.919 241.413 395.672 241.185 395.346C240.958 395.02 240.836 394.631 240.836 394.234C240.836 393.836 240.958 393.448 241.185 393.122C241.413 392.796 241.735 392.548 242.108 392.412L260.932 385.609C271.252 381.876 280.624 375.909 288.382 368.132C296.139 360.355 302.092 350.959 305.815 340.613L312.601 321.743C313.217 320.038 315.635 320.038 316.235 321.743Z" fill="var(--fill-0, white)" fill-opacity="0.1"/>
</svg>
