<svg width="503" height="166" viewBox="0 0 503 166" fill="none" xmlns="http://www.w3.org/2000/svg">
<rect width="252" height="80" rx="40" fill="#3C4CFF"/>
<rect opacity="0.2" x="26" y="29" width="202" height="21" rx="10.5" fill="#D9D9D9"/>
<rect x="251" y="86" width="252" height="80" rx="40" fill="white"/>
<rect opacity="0.2" x="330" y="116" width="165" height="21" rx="10.5" fill="#3C4CFF"/>
<circle cx="291" cy="126" r="25" fill="#D8DBFF"/>
<path d="M255.5 41C254.948 41 254.5 40.5523 254.5 40C254.5 39.4477 254.948 39 255.5 39V40V41ZM377.707 83.2071C377.317 83.5976 376.683 83.5976 376.293 83.2071L369.929 76.8431C369.538 76.4526 369.538 75.8195 369.929 75.4289C370.319 75.0384 370.953 75.0384 371.343 75.4289L377 81.0858L382.657 75.4289C383.047 75.0384 383.681 75.0384 384.071 75.4289C384.462 75.8195 384.462 76.4526 384.071 76.8431L377.707 83.2071ZM376 78.3889C376 77.8366 376.448 77.3889 377 77.3889C377.552 77.3889 378 77.8366 378 78.3889H377H376ZM378 74.2778C378 74.8301 377.552 75.2778 377 75.2778C376.448 75.2778 376 74.8301 376 74.2778H377H378ZM376 70.1667C376 69.6144 376.448 69.1667 377 69.1667C377.552 69.1667 378 69.6144 378 70.1667H377H376ZM378 66.0556C378 66.6078 377.552 67.0556 377 67.0556C376.448 67.0556 376 66.6078 376 66.0556H377H378ZM375.93 62.1926C375.887 61.6419 376.299 61.1609 376.85 61.1181C377.4 61.0753 377.881 61.487 377.924 62.0377L376.927 62.1151L375.93 62.1926ZM377.314 58.1622C377.443 58.6993 377.112 59.2389 376.575 59.3674C376.038 59.496 375.498 59.1647 375.369 58.6276L376.342 58.3949L377.314 58.1622ZM374.255 55.1961C374.044 54.686 374.286 54.1009 374.796 53.8894C375.306 53.6778 375.891 53.9199 376.103 54.43L375.179 54.8131L374.255 55.1961ZM374.319 50.9353C374.608 51.4059 374.46 52.0217 373.99 52.3107C373.519 52.5997 372.903 52.4525 372.614 51.9819L373.466 51.4586L374.319 50.9353ZM370.49 49.0629C370.131 48.6431 370.181 48.0118 370.6 47.653C371.02 47.2941 371.651 47.3435 372.01 47.7633L371.25 48.4131L370.49 49.0629ZM369.237 44.9897C369.657 45.3486 369.706 45.9798 369.347 46.3996C368.988 46.8194 368.357 46.8688 367.937 46.5099L368.587 45.7498L369.237 44.9897ZM365.018 44.3857C364.548 44.0967 364.4 43.4809 364.689 43.0102C364.978 42.5396 365.594 42.3924 366.065 42.6814L365.541 43.5335L365.018 44.3857ZM362.57 40.8974C363.08 41.109 363.322 41.694 363.111 42.2042C362.899 42.7143 362.314 42.9564 361.804 42.7449L362.187 41.8211L362.57 40.8974ZM358.372 41.6306C357.835 41.5021 357.504 40.9625 357.633 40.4254C357.761 39.8882 358.301 39.557 358.838 39.6855L358.605 40.6581L358.372 41.6306ZM354.962 39.0759C355.513 39.1187 355.925 39.5998 355.882 40.1504C355.839 40.701 355.358 41.1127 354.807 41.0699L354.885 40.0729L354.962 39.0759ZM351.01 41C350.458 41 350.01 40.5523 350.01 40C350.01 39.4477 350.458 39 351.01 39V40V41ZM347.031 39C347.583 39 348.031 39.4477 348.031 40C348.031 40.5523 347.583 41 347.031 41V40V39ZM343.051 41C342.499 41 342.051 40.5523 342.051 40C342.051 39.4477 342.499 39 343.051 39V40V41ZM339.071 39C339.624 39 340.071 39.4477 340.071 40C340.071 40.5523 339.624 41 339.071 41V40V39ZM335.092 41C334.54 41 334.092 40.5523 334.092 40C334.092 39.4477 334.54 39 335.092 39V40V41ZM331.112 39C331.665 39 332.112 39.4477 332.112 40C332.112 40.5523 331.665 41 331.112 41V40V39ZM327.133 41C326.58 41 326.133 40.5523 326.133 40C326.133 39.4477 326.58 39 327.133 39V40V41ZM323.153 39C323.705 39 324.153 39.4477 324.153 40C324.153 40.5523 323.705 41 323.153 41V40V39ZM319.173 41C318.621 41 318.173 40.5523 318.173 40C318.173 39.4477 318.621 39 319.173 39V40V41ZM315.194 39C315.746 39 316.194 39.4477 316.194 40C316.194 40.5523 315.746 41 315.194 41V40V39ZM311.214 41C310.662 41 310.214 40.5523 310.214 40C310.214 39.4477 310.662 39 311.214 39V40V41ZM307.235 39C307.787 39 308.235 39.4477 308.235 40C308.235 40.5523 307.787 41 307.235 41V40V39ZM303.255 41C302.703 41 302.255 40.5523 302.255 40C302.255 39.4477 302.703 39 303.255 39V40V41ZM299.276 39C299.828 39 300.276 39.4477 300.276 40C300.276 40.5523 299.828 41 299.276 41V40V39ZM295.296 41C294.744 41 294.296 40.5523 294.296 40C294.296 39.4477 294.744 39 295.296 39V40V41ZM291.316 39C291.869 39 292.316 39.4477 292.316 40C292.316 40.5523 291.869 41 291.316 41V40V39ZM287.337 41C286.784 41 286.337 40.5523 286.337 40C286.337 39.4477 286.784 39 287.337 39V40V41ZM283.357 39C283.909 39 284.357 39.4477 284.357 40C284.357 40.5523 283.909 41 283.357 41V40V39ZM279.378 41C278.825 41 278.378 40.5523 278.378 40C278.378 39.4477 278.825 39 279.378 39V40V41ZM275.398 39C275.95 39 276.398 39.4477 276.398 40C276.398 40.5523 275.95 41 275.398 41V40V39ZM271.418 41C270.866 41 270.418 40.5523 270.418 40C270.418 39.4477 270.866 39 271.418 39V40V41ZM267.439 39C267.991 39 268.439 39.4477 268.439 40C268.439 40.5523 267.991 41 267.439 41V40V39ZM263.459 41C262.907 41 262.459 40.5523 262.459 40C262.459 39.4477 262.907 39 263.459 39V40V41ZM259.48 39C260.032 39 260.48 39.4477 260.48 40C260.48 40.5523 260.032 41 259.48 41V40V39ZM377 82.5H376V78.3889H377H378V82.5H377ZM377 74.2778H376V70.1667H377H378V74.2778H377ZM377 66.0556H376V64H377H378V66.0556H377ZM377 64H376C376 63.3915 375.976 62.7888 375.93 62.1926L376.927 62.1151L377.924 62.0377C377.974 62.6854 378 63.3398 378 64H377ZM376.342 58.3949L375.369 58.6276C375.087 57.4457 374.713 56.2993 374.255 55.1961L375.179 54.8131L376.103 54.43C376.6 55.6298 377.007 56.8767 377.314 58.1622L376.342 58.3949ZM373.466 51.4586L372.614 51.9819C371.982 50.9526 371.271 49.9768 370.49 49.0629L371.25 48.4131L372.01 47.7633C372.859 48.7562 373.632 49.8166 374.319 50.9353L373.466 51.4586ZM368.587 45.7498L367.937 46.5099C367.023 45.7286 366.047 45.0177 365.018 44.3857L365.541 43.5335L366.065 42.6814C367.183 43.3684 368.244 44.1409 369.237 44.9897L368.587 45.7498ZM362.187 41.8211L361.804 42.7449C360.701 42.2874 359.554 41.9134 358.372 41.6306L358.605 40.6581L358.838 39.6855C360.123 39.9931 361.37 40.3999 362.57 40.8974L362.187 41.8211ZM354.885 40.0729L354.807 41.0699C354.211 41.0236 353.608 41 353 41V40V39C353.66 39 354.315 39.0256 354.962 39.0759L354.885 40.0729ZM353 40V41H351.01V40V39H353V40ZM347.031 40V41H343.051V40V39H347.031V40ZM339.071 40V41H335.092V40V39H339.071V40ZM331.112 40V41H327.133V40V39H331.112V40ZM323.153 40V41H319.173V40V39H323.153V40ZM315.194 40V41H311.214V40V39H315.194V40ZM307.235 40V41H303.255V40V39H307.235V40ZM299.276 40V41H295.296V40V39H299.276V40ZM291.316 40V41H287.337V40V39H291.316V40ZM283.357 40V41H279.378V40V39H283.357V40ZM275.398 40V41H271.418V40V39H275.398V40ZM267.439 40V41H263.459V40V39H267.439V40ZM259.48 40V41H255.5V40V39H259.48V40Z" fill="white" fill-opacity="0.4"/>
</svg>
