<svg preserveAspectRatio="none" width="100%" height="100%" overflow="visible" style="display: block;" viewBox="0 0 152.719 184.623" fill="none" xmlns="http://www.w3.org/2000/svg">
<g id="Group">
<path id="Vector" d="M58.5977 35.8391L63.8674 50.5432C66.7589 58.6041 71.3845 65.9249 77.4147 71.9837C83.4448 78.0425 90.7309 82.6902 98.7536 85.5955L113.388 90.8903C113.677 90.9968 113.926 91.1898 114.103 91.4434C114.279 91.6969 114.373 91.9987 114.373 92.308C114.373 92.6172 114.279 92.919 114.103 93.1725C113.926 93.4261 113.677 93.6191 113.388 93.7256L98.7536 99.0204C90.7309 101.926 83.4448 106.573 77.4147 112.632C71.3845 118.691 66.7589 126.012 63.8674 134.073L58.5977 148.777C58.4917 149.067 58.2996 149.318 58.0472 149.495C57.7949 149.672 57.4945 149.767 57.1867 149.767C56.8789 149.767 56.5786 149.672 56.3262 149.495C56.0739 149.318 55.8818 149.067 55.7758 148.777L50.5061 134.073C47.6146 126.012 42.9889 118.691 36.9588 112.632C30.9287 106.573 23.6426 101.926 15.6199 99.0204L0.985476 93.7256C0.696504 93.6191 0.447039 93.4261 0.270803 93.1725C0.0945676 92.919 6.10352e-05 92.6172 6.10352e-05 92.308C6.10352e-05 91.9987 0.0945676 91.6969 0.270803 91.4434C0.447039 91.1898 0.696504 90.9968 0.985476 90.8903L15.6199 85.5955C23.6426 82.6902 30.9287 78.0425 36.9588 71.9837C42.9889 65.9249 47.6146 58.6041 50.5061 50.5432L55.7758 35.8391C55.8788 35.5458 56.0698 35.2918 56.3225 35.1122C56.5752 34.9326 56.8772 34.8361 57.1867 34.8361C57.4963 34.8361 57.7982 34.9326 58.0509 35.1122C58.3036 35.2918 58.4946 35.5458 58.5977 35.8391ZM124.472 0.503194L127.143 7.94754C128.608 12.0289 130.951 15.7355 134.005 18.8035C137.058 21.8715 140.747 24.2255 144.809 25.6979L152.218 28.3816C152.365 28.4353 152.492 28.533 152.581 28.6616C152.671 28.7902 152.719 28.9433 152.719 29.1003C152.719 29.2572 152.671 29.4104 152.581 29.539C152.492 29.6675 152.365 29.7653 152.218 29.819L144.809 32.5027C140.747 33.9751 137.058 36.3291 134.005 39.3971C130.951 42.4651 128.608 46.1717 127.143 50.253L124.472 57.6974C124.419 57.8449 124.321 57.9722 124.193 58.0623C124.065 58.1523 123.913 58.2006 123.757 58.2006C123.601 58.2006 123.448 58.1523 123.32 58.0623C123.192 57.9722 123.095 57.8449 123.041 57.6974L120.37 50.253C118.905 46.1717 116.562 42.4651 113.509 39.3971C110.455 36.3291 106.766 33.9751 102.704 32.5027L95.2952 29.819C95.1484 29.7653 95.0216 29.6675 94.932 29.539C94.8424 29.4104 94.7944 29.2572 94.7944 29.1003C94.7944 28.9433 94.8424 28.7902 94.932 28.6616C95.0216 28.533 95.1484 28.4353 95.2952 28.3816L102.704 25.6979C106.766 24.2255 110.455 21.8715 113.509 18.8035C116.562 15.7355 118.905 12.0289 120.37 7.94754L123.041 0.503194C123.095 0.355712 123.192 0.228321 123.32 0.138303C123.448 0.0482855 123.601 0 123.757 0C123.913 0 124.065 0.0482855 124.193 0.138303C124.321 0.228321 124.419 0.355712 124.472 0.503194ZM124.472 126.925L127.143 134.369C128.608 138.451 130.951 142.157 134.005 145.225C137.058 148.293 140.747 150.647 144.809 152.12L152.218 154.804C152.365 154.857 152.492 154.955 152.581 155.084C152.671 155.212 152.719 155.365 152.719 155.522C152.719 155.679 152.671 155.832 152.581 155.961C152.492 156.089 152.365 156.187 152.218 156.241L144.809 158.925C140.747 160.397 137.058 162.751 134.005 165.819C130.951 168.887 128.608 172.594 127.143 176.675L124.472 184.119C124.419 184.267 124.321 184.394 124.193 184.484C124.065 184.574 123.913 184.623 123.757 184.623C123.601 184.623 123.448 184.574 123.32 184.484C123.192 184.394 123.095 184.267 123.041 184.119L120.37 176.675C118.905 172.594 116.562 168.887 113.509 165.819C110.455 162.751 106.766 160.397 102.704 158.925L95.2952 156.241C95.1484 156.187 95.0216 156.089 94.932 155.961C94.8424 155.832 94.7944 155.679 94.7944 155.522C94.7944 155.365 94.8424 155.212 94.932 155.084C95.0216 154.955 95.1484 154.857 95.2952 154.804L102.704 152.12C106.766 150.647 110.455 148.293 113.509 145.225C116.562 142.157 118.905 138.451 120.37 134.369L123.041 126.925C123.284 126.253 124.236 126.253 124.472 126.925Z" fill="url(#paint0_linear_19400_6738)"/>
</g>
<defs>
<linearGradient id="paint0_linear_19400_6738" x1="76.3596" y1="184.623" x2="76.3596" y2="0" gradientUnits="userSpaceOnUse">
<stop stop-color="#EB6DB2"/>
<stop offset="1" stop-color="#F2BDA9"/>
</linearGradient>
</defs>
</svg>
